<svg width="194" height="40" viewBox="0 0 194 40" fill="none" xmlns="http://www.w3.org/2000/svg">
<g id="Group 265">
<g id="Vector">
<path d="M190.364 39.4038L190.587 38.6191C190.712 38.7346 190.854 38.8348 191.013 38.9197C191.173 39.0047 191.341 39.0709 191.517 39.1185C191.694 39.1626 191.872 39.1847 192.052 39.1847C192.374 39.1847 192.634 39.1151 192.831 38.9758C193.029 38.8365 193.127 38.6548 193.127 38.4306C193.127 38.2675 193.075 38.1333 192.972 38.028C192.871 37.9193 192.738 37.8259 192.572 37.7478C192.405 37.6696 192.227 37.5949 192.037 37.5236C191.805 37.4352 191.574 37.335 191.346 37.2229C191.117 37.1108 190.927 36.9631 190.774 36.7796C190.626 36.5962 190.551 36.355 190.551 36.0561C190.551 35.7707 190.624 35.5227 190.769 35.3121C190.915 35.1015 191.117 34.9384 191.377 34.8229C191.64 34.7074 191.941 34.6497 192.281 34.6497C192.793 34.6497 193.297 34.7754 193.792 35.0268L193.538 35.7809C193.427 35.7096 193.299 35.6467 193.153 35.5924C193.008 35.5346 192.859 35.4904 192.707 35.4599C192.554 35.4293 192.411 35.414 192.276 35.414C192.023 35.414 191.818 35.4718 191.663 35.5873C191.507 35.6994 191.429 35.8505 191.429 36.0408C191.429 36.1495 191.46 36.2497 191.522 36.3414C191.588 36.4297 191.697 36.518 191.85 36.6064C192.002 36.6947 192.213 36.7932 192.483 36.9019C192.722 36.997 192.958 37.1057 193.19 37.228C193.422 37.3469 193.614 37.5015 193.766 37.6917C193.922 37.8786 194 38.1231 194 38.4255C194 38.7244 193.919 38.9894 193.756 39.2204C193.597 39.448 193.373 39.6263 193.086 39.7554C192.802 39.8845 192.473 39.949 192.099 39.949C191.479 39.949 190.901 39.7673 190.364 39.4038Z" fill="#232534"/>
<path d="M189.221 39.8471H188.37V37.0038C188.37 36.5214 188.229 36.1359 187.949 35.8471C187.668 35.5584 187.296 35.414 186.832 35.414C186.351 35.414 185.96 35.5703 185.658 35.8828C185.36 36.1919 185.212 36.5996 185.212 37.1057V39.8471H184.36V34.7516H185.102L185.134 35.5771C185.324 35.2781 185.575 35.0488 185.887 34.8892C186.198 34.7295 186.565 34.6497 186.988 34.6497C187.677 34.6497 188.221 34.8535 188.619 35.2611C189.021 35.6688 189.221 36.2276 189.221 36.9376V39.8471Z" fill="#232534"/>
<path d="M180.454 39.949C179.938 39.949 179.474 39.8335 179.062 39.6025C178.65 39.3715 178.324 39.0573 178.085 38.6599C177.85 38.259 177.732 37.8055 177.732 37.2994C177.732 36.7966 177.85 36.3465 178.085 35.949C178.324 35.5482 178.65 35.2323 179.062 35.0013C179.474 34.7669 179.938 34.6497 180.454 34.6497C180.97 34.6497 181.432 34.7669 181.841 35.0013C182.249 35.2323 182.571 35.5482 182.807 35.949C183.042 36.3465 183.16 36.7966 183.16 37.2994C183.16 37.8055 183.042 38.259 182.807 38.6599C182.571 39.0573 182.249 39.3715 181.841 39.6025C181.432 39.8335 180.97 39.949 180.454 39.949ZM180.449 39.1949C180.798 39.1949 181.112 39.1117 181.389 38.9452C181.666 38.7788 181.884 38.5529 182.043 38.2675C182.206 37.9822 182.287 37.6577 182.287 37.2943C182.287 36.9376 182.206 36.6166 182.043 36.3312C181.884 36.0459 181.666 35.82 181.389 35.6535C181.112 35.487 180.798 35.4038 180.449 35.4038C180.099 35.4038 179.784 35.487 179.503 35.6535C179.226 35.82 179.006 36.0459 178.844 36.3312C178.684 36.6166 178.605 36.9376 178.605 37.2943C178.605 37.6577 178.684 37.9822 178.844 38.2675C179.006 38.5529 179.226 38.7788 179.503 38.9452C179.784 39.1117 180.099 39.1949 180.449 39.1949Z" fill="#232534"/>
<path d="M176.08 33.1414C175.935 33.1414 175.812 33.0921 175.712 32.9936C175.615 32.8917 175.566 32.7694 175.566 32.6268C175.566 32.4875 175.615 32.3686 175.712 32.2701C175.812 32.1715 175.935 32.1223 176.08 32.1223C176.229 32.1223 176.354 32.1715 176.454 32.2701C176.555 32.3686 176.605 32.4875 176.605 32.6268C176.605 32.7694 176.555 32.8917 176.454 32.9936C176.354 33.0921 176.229 33.1414 176.08 33.1414ZM176.506 39.8471H175.654V34.7516H176.506V39.8471Z" fill="#232534"/>
<path d="M174.647 39.7248C174.304 39.8743 173.97 39.949 173.644 39.949C173.333 39.949 173.059 39.8828 172.824 39.7503C172.588 39.6144 172.405 39.4259 172.273 39.1847C172.141 38.9401 172.076 38.6565 172.076 38.3338V35.5006H171.167V34.7516H172.117V33.4777H172.927V34.7516H174.48V35.5006H172.927V38.1809C172.927 38.4866 173.011 38.7329 173.177 38.9197C173.346 39.1066 173.568 39.2 173.842 39.2C174.063 39.2 174.285 39.1355 174.506 39.0064L174.647 39.7248Z" fill="#232534"/>
<path d="M170.024 39.8471H169.276L169.245 39.0217C169.054 39.3206 168.803 39.5499 168.492 39.7096C168.183 39.8692 167.818 39.949 167.396 39.949C166.707 39.949 166.161 39.7452 165.76 39.3376C165.361 38.9265 165.162 38.366 165.162 37.6561V34.7516H166.014V37.5949C166.014 38.0773 166.153 38.4628 166.43 38.7516C166.71 39.0403 167.082 39.1847 167.546 39.1847C168.031 39.1847 168.422 39.0284 168.72 38.7159C169.021 38.4034 169.172 37.9958 169.172 37.493V34.7516H170.024V39.8471Z" fill="#232534"/>
<path d="M163.656 39.8471H162.752V32H163.656V39.8471Z" fill="#232534"/>
<path d="M158.846 39.949C158.33 39.949 157.866 39.8335 157.454 39.6025C157.042 39.3715 156.717 39.0573 156.478 38.6599C156.242 38.259 156.124 37.8055 156.124 37.2994C156.124 36.7966 156.242 36.3465 156.478 35.949C156.717 35.5482 157.042 35.2323 157.454 35.0013C157.866 34.7669 158.33 34.6497 158.846 34.6497C159.362 34.6497 159.824 34.7669 160.233 35.0013C160.642 35.2323 160.964 35.5482 161.199 35.949C161.435 36.3465 161.552 36.7966 161.552 37.2994C161.552 37.8055 161.435 38.259 161.199 38.6599C160.964 39.0573 160.642 39.3715 160.233 39.6025C159.824 39.8335 159.362 39.949 158.846 39.949ZM158.841 39.1949C159.191 39.1949 159.504 39.1117 159.781 38.9452C160.058 38.7788 160.276 38.5529 160.436 38.2675C160.598 37.9822 160.68 37.6577 160.68 37.2943C160.68 36.9376 160.598 36.6166 160.436 36.3312C160.276 36.0459 160.058 35.82 159.781 35.6535C159.504 35.487 159.191 35.4038 158.841 35.4038C158.491 35.4038 158.176 35.487 157.896 35.6535C157.619 35.82 157.399 36.0459 157.236 36.3312C157.077 36.6166 156.997 36.9376 156.997 37.2943C156.997 37.6577 157.077 37.9822 157.236 38.2675C157.399 38.5529 157.619 38.7788 157.896 38.9452C158.176 39.1117 158.491 39.1949 158.841 39.1949Z" fill="#232534"/>
<path d="M149.964 39.1032L150.406 38.4153C150.631 38.5953 150.856 38.7448 151.081 38.8637C151.306 38.9826 151.535 39.0709 151.767 39.1287C152.002 39.1864 152.241 39.2153 152.483 39.2153C152.837 39.2153 153.145 39.1575 153.408 39.042C153.675 38.9265 153.882 38.7669 154.031 38.5631C154.18 38.3558 154.255 38.118 154.255 37.8497C154.255 37.5575 154.17 37.3163 154 37.1261C153.834 36.9325 153.617 36.7677 153.351 36.6318C153.084 36.496 152.8 36.3669 152.499 36.2446C152.246 36.1393 151.995 36.0272 151.746 35.9083C151.497 35.7894 151.27 35.6518 151.065 35.4955C150.865 35.3359 150.704 35.1439 150.582 34.9197C150.461 34.6955 150.401 34.4255 150.401 34.1096C150.401 33.7053 150.504 33.3486 150.712 33.0395C150.92 32.7304 151.207 32.4892 151.574 32.3159C151.945 32.1427 152.371 32.0561 152.852 32.0561C153.178 32.0561 153.505 32.0985 153.834 32.1834C154.163 32.265 154.481 32.3856 154.79 32.5452L154.416 33.279C154.173 33.1397 153.919 33.0327 153.652 32.958C153.389 32.8832 153.129 32.8459 152.873 32.8459C152.568 32.8459 152.3 32.8968 152.068 32.9987C151.839 33.0972 151.659 33.2365 151.528 33.4166C151.4 33.5932 151.336 33.8004 151.336 34.0382C151.336 34.3032 151.413 34.5257 151.569 34.7057C151.729 34.8858 151.933 35.042 152.182 35.1745C152.435 35.3036 152.702 35.4293 152.982 35.5516C153.249 35.6671 153.512 35.7894 153.772 35.9185C154.035 36.0442 154.272 36.1936 154.483 36.3669C154.698 36.5367 154.869 36.7406 154.997 36.9783C155.125 37.2161 155.19 37.5032 155.19 37.8395C155.19 38.2709 155.079 38.6497 154.857 38.9758C154.636 39.2985 154.324 39.5499 153.922 39.7299C153.524 39.91 153.056 40 152.52 40C152.049 40 151.6 39.9253 151.174 39.7758C150.749 39.6263 150.345 39.4021 149.964 39.1032Z" fill="#232534"/>
<path d="M144.24 39.8471H143.326V32.9987H140.823V32.2038H146.744V32.9987H144.24V39.8471Z" fill="#232534"/>
<path d="M139.836 32.2038V39.8471H138.922V32.2038H139.836Z" fill="#232534"/>
<path d="M135.13 39.3325L134.657 40C134.415 39.8403 134.178 39.679 133.946 39.5159C133.714 39.3529 133.49 39.1915 133.276 39.0318C132.936 39.3478 132.567 39.589 132.169 39.7554C131.774 39.9185 131.355 40 130.912 40C130.421 40 129.981 39.9049 129.593 39.7146C129.205 39.5244 128.9 39.2628 128.679 38.9299C128.457 38.5936 128.346 38.2132 128.346 37.7885C128.346 37.4386 128.417 37.1363 128.559 36.8815C128.705 36.6268 128.893 36.4059 129.125 36.2191C129.357 36.0289 129.605 35.8556 129.868 35.6994C129.622 35.3359 129.434 34.9894 129.302 34.6599C129.174 34.3304 129.11 34.0229 129.11 33.7376C129.11 33.4115 129.188 33.1227 129.344 32.8713C129.499 32.6166 129.714 32.4161 129.988 32.2701C130.261 32.124 130.571 32.051 130.917 32.051C131.264 32.051 131.568 32.1223 131.832 32.265C132.095 32.4042 132.301 32.5996 132.45 32.851C132.599 33.1023 132.673 33.3911 132.673 33.7172C132.673 34.0739 132.588 34.3813 132.419 34.6395C132.252 34.8943 132.038 35.1185 131.774 35.3121C131.515 35.5057 131.241 35.6892 130.954 35.8624C131.224 36.1919 131.546 36.5333 131.92 36.8866C132.297 37.2365 132.723 37.5966 133.198 37.9669C133.395 37.7121 133.577 37.4217 133.743 37.0955C133.913 36.766 134.062 36.4059 134.19 36.0153L134.917 36.2955C134.771 36.7202 134.607 37.1108 134.423 37.4675C134.24 37.8242 134.039 38.1452 133.821 38.4306C134.025 38.5766 134.236 38.7261 134.455 38.879C134.673 39.0318 134.898 39.183 135.13 39.3325ZM130.549 35.3172C130.788 35.1813 131.007 35.042 131.208 34.8994C131.413 34.7567 131.575 34.597 131.697 34.4204C131.818 34.2437 131.878 34.0382 131.878 33.8038C131.878 33.5185 131.788 33.2824 131.608 33.0955C131.428 32.9087 131.2 32.8153 130.923 32.8153C130.649 32.8153 130.426 32.9104 130.253 33.1006C130.079 33.2909 129.993 33.5372 129.993 33.8395C129.993 34.0569 130.04 34.2896 130.133 34.5376C130.23 34.7856 130.369 35.0454 130.549 35.3172ZM130.294 36.265C130.097 36.3941 129.917 36.5333 129.754 36.6828C129.595 36.8289 129.467 36.9902 129.37 37.1669C129.276 37.3435 129.229 37.5456 129.229 37.7732C129.229 38.0552 129.304 38.3066 129.453 38.5274C129.602 38.7482 129.806 38.9214 130.066 39.0471C130.325 39.1728 130.62 39.2357 130.949 39.2357C131.257 39.2357 131.553 39.1779 131.837 39.0624C132.124 38.9469 132.396 38.7771 132.652 38.5529C132.167 38.1622 131.728 37.7749 131.333 37.3911C130.938 37.0038 130.592 36.6284 130.294 36.265Z" fill="#232534"/>
<path d="M119.537 39.8471V32.2038H120.389V35.5159C120.78 34.9384 121.386 34.6497 122.207 34.6497C122.896 34.6497 123.433 34.8518 123.817 35.2561C124.205 35.6569 124.399 36.2174 124.399 36.9376V39.8471H123.547V37.1312C123.547 36.5843 123.408 36.1597 123.131 35.8573C122.858 35.5516 122.475 35.3987 121.984 35.3987C121.488 35.3987 121.099 35.5533 120.815 35.8624C120.531 36.1715 120.389 36.5945 120.389 37.1312V39.8471H119.537Z" fill="#232534"/>
<path d="M118.337 39.1134C118.084 39.3817 117.785 39.589 117.439 39.735C117.092 39.8777 116.72 39.949 116.322 39.949C115.806 39.949 115.342 39.8335 114.93 39.6025C114.521 39.3715 114.198 39.0556 113.959 38.6548C113.723 38.2539 113.605 37.8021 113.605 37.2994C113.605 36.7932 113.723 36.3414 113.959 35.9439C114.198 35.5431 114.521 35.2272 114.93 34.9962C115.342 34.7652 115.806 34.6497 116.322 34.6497C116.717 34.6497 117.087 34.721 117.433 34.8637C117.78 35.0064 118.079 35.2119 118.332 35.4803L117.823 36.0051C117.64 35.8149 117.42 35.6688 117.163 35.5669C116.911 35.465 116.642 35.414 116.358 35.414C115.995 35.414 115.671 35.4955 115.387 35.6586C115.107 35.8183 114.885 36.0391 114.722 36.321C114.563 36.603 114.483 36.9274 114.483 37.2943C114.483 37.6611 114.563 37.9873 114.722 38.2726C114.885 38.558 115.107 38.7822 115.387 38.9452C115.671 39.1049 115.995 39.1847 116.358 39.1847C116.642 39.1847 116.912 39.1338 117.169 39.0318C117.425 38.9265 117.643 38.7805 117.823 38.5936L118.337 39.1134Z" fill="#232534"/>
<path d="M112.52 39.2204C111.876 39.7062 111.166 39.949 110.39 39.949C109.85 39.949 109.365 39.8301 108.936 39.5924C108.507 39.3546 108.167 39.0318 107.918 38.6242C107.672 38.2132 107.549 37.7495 107.549 37.2331C107.549 36.7372 107.663 36.2955 107.892 35.9083C108.12 35.5176 108.434 35.2102 108.832 34.986C109.23 34.7618 109.682 34.6497 110.188 34.6497C110.707 34.6497 111.164 34.772 111.559 35.0166C111.957 35.2611 112.267 35.6008 112.489 36.0357C112.71 36.4705 112.821 36.9732 112.821 37.5439V37.707H108.474C108.536 38.0059 108.661 38.2658 108.848 38.4866C109.038 38.7074 109.274 38.879 109.554 39.0013C109.834 39.1236 110.148 39.1847 110.494 39.1847C111.09 39.1847 111.633 38.9928 112.125 38.6089L112.52 39.2204ZM108.442 36.9936H112.016C111.978 36.6777 111.878 36.4025 111.715 36.1682C111.555 35.9304 111.348 35.7452 111.091 35.6127C110.839 35.4803 110.553 35.414 110.234 35.414C109.912 35.414 109.622 35.4803 109.362 35.6127C109.106 35.7452 108.896 35.9304 108.733 36.1682C108.574 36.4025 108.477 36.6777 108.442 36.9936Z" fill="#232534"/>
<path d="M105.305 39.8471H104.391V32.9987H101.887V32.2038H107.809V32.9987H105.305V39.8471Z" fill="#232534"/>
<path d="M94.0028 39.8471H93.2445V32.2038H94.0963V35.4395C94.3387 35.1915 94.6261 34.9979 94.9585 34.8586C95.291 34.7193 95.6528 34.6497 96.0441 34.6497C96.5566 34.6497 97.0137 34.7652 97.4154 34.9962C97.817 35.2272 98.1339 35.5431 98.3659 35.9439C98.6013 36.3414 98.7191 36.7932 98.7191 37.2994C98.7191 37.8021 98.6013 38.2539 98.3659 38.6548C98.1339 39.0556 97.817 39.3715 97.4154 39.6025C97.0137 39.8335 96.5566 39.949 96.0441 39.949C95.6355 39.949 95.2598 39.8743 94.917 39.7248C94.5776 39.572 94.2868 39.3648 94.0444 39.1032L94.0028 39.8471ZM95.9714 39.1949C96.3281 39.1949 96.6466 39.1134 96.9271 38.9503C97.2111 38.7839 97.4344 38.558 97.5971 38.2726C97.7634 37.9873 97.8465 37.6645 97.8465 37.3045C97.8465 36.941 97.7634 36.6166 97.5971 36.3312C97.4344 36.0425 97.2111 35.8149 96.9271 35.6484C96.6466 35.482 96.3281 35.3987 95.9714 35.3987C95.632 35.3987 95.3239 35.4752 95.0468 35.628C94.7733 35.7809 94.5517 35.9898 94.382 36.2548C94.2158 36.5197 94.1206 36.8204 94.0963 37.1567V37.4369C94.1206 37.7732 94.2158 38.0739 94.382 38.3389C94.5482 38.6038 94.7681 38.8127 95.0416 38.9656C95.3187 39.1185 95.6286 39.1949 95.9714 39.1949Z" fill="#232534"/>
<path d="M91.7434 39.2204C91.0993 39.7062 90.3894 39.949 89.6138 39.949C89.0736 39.949 88.5888 39.8301 88.1594 39.5924C87.7301 39.3546 87.3907 39.0318 87.1414 38.6242C86.8955 38.2132 86.7726 37.7495 86.7726 37.2331C86.7726 36.7372 86.8869 36.2955 87.1154 35.9083C87.344 35.5176 87.6573 35.2102 88.0556 34.986C88.4538 34.7618 88.9057 34.6497 89.4112 34.6497C89.9306 34.6497 90.3877 34.772 90.7825 35.0166C91.1807 35.2611 91.4906 35.6008 91.7122 36.0357C91.9338 36.4705 92.0446 36.9732 92.0446 37.5439V37.707H87.6972C87.7595 38.0059 87.8841 38.2658 88.0711 38.4866C88.2616 38.7074 88.4971 38.879 88.7775 39.0013C89.058 39.1236 89.3714 39.1847 89.7177 39.1847C90.3133 39.1847 90.8569 38.9928 91.3486 38.6089L91.7434 39.2204ZM87.666 36.9936H91.2395C91.2015 36.6777 91.101 36.4025 90.9383 36.1682C90.779 35.9304 90.5712 35.7452 90.315 35.6127C90.0622 35.4803 89.7765 35.414 89.458 35.414C89.1359 35.414 88.8451 35.4803 88.5854 35.6127C88.3291 35.7452 88.1196 35.9304 87.9569 36.1682C87.7976 36.4025 87.7006 36.6777 87.666 36.9936Z" fill="#232534"/>
<path d="M84.0405 39.8471H83.251L81.2876 33.7478L79.3242 39.8471H78.5347L76 32.2038H76.9557L78.9243 38.3185L80.8929 32.2038H81.6824L83.6457 38.3032L85.6039 32.2038H86.5648L84.0405 39.8471Z" fill="#232534"/>
</g>
<g id="Group 191">
<g id="Design To Code">
<path d="M17.0154 23.8191H13.5966L13.3917 21.6165C12.709 22.4031 11.8793 23.022 10.9025 23.473C9.92564 23.9135 8.86481 24.1337 7.71994 24.1337C6.23898 24.1337 4.91556 23.7771 3.74969 23.0639C2.58382 22.3507 1.66478 21.3805 0.992564 20.1534C0.330855 18.9158 0 17.5156 0 15.9528C0 14.39 0.330855 12.9951 0.992564 11.7679C1.66478 10.5303 2.58382 9.5549 3.74969 8.84169C4.91556 8.12848 6.23898 7.77188 7.71994 7.77188C8.80179 7.77188 9.80485 7.96591 10.7291 8.35398C11.6534 8.74205 12.4569 9.28745 13.1397 9.99017V0.220256H17.0154V23.8191ZM8.57071 20.6568C9.41098 20.6568 10.1777 20.468 10.8709 20.0905C11.5642 19.7024 12.1156 19.1727 12.5252 18.5015C12.9348 17.8302 13.1397 17.0646 13.1397 16.2045V15.6539C13.1397 14.8043 12.9348 14.0492 12.5252 13.3884C12.1156 12.7171 11.5642 12.1927 10.8709 11.8151C10.1777 11.4271 9.41098 11.233 8.57071 11.233C7.68843 11.233 6.90068 11.4428 6.20747 11.8623C5.51425 12.2714 4.96807 12.8325 4.56895 13.5457C4.16982 14.2484 3.97026 15.0456 3.97026 15.9371C3.97026 16.8391 4.16982 17.6467 4.56895 18.3599C4.96807 19.0731 5.51425 19.6342 6.20747 20.0433C6.90068 20.4523 7.68843 20.6568 8.57071 20.6568Z" fill="#3E01A4"/>
<path d="M33.56 21.9941C31.5959 23.4205 29.448 24.1337 27.1162 24.1337C25.4252 24.1337 23.9075 23.7666 22.563 23.0324C21.2186 22.2983 20.1525 21.2966 19.3648 20.0275C18.5875 18.7479 18.1989 17.311 18.1989 15.7168C18.1989 14.196 18.5508 12.8378 19.2545 11.6421C19.9687 10.4464 20.9403 9.50246 22.1692 8.81023C23.4086 8.11799 24.8055 7.77188 26.36 7.77188C27.9775 7.77188 29.3954 8.1547 30.6138 8.92035C31.8427 9.67552 32.7985 10.7296 33.4812 12.0826C34.164 13.4251 34.5053 14.9879 34.5053 16.7709V17.2743H22.374C22.563 17.9875 22.8939 18.6168 23.3665 19.1622C23.8497 19.7076 24.4484 20.1324 25.1626 20.4366C25.8768 20.7407 26.6803 20.8928 27.5731 20.8928C29.2537 20.8928 30.8081 20.3474 32.2366 19.2566L33.56 21.9941ZM22.2164 15.0088H30.9132C30.8292 14.2222 30.5876 13.5352 30.1884 12.9479C29.7998 12.3605 29.2904 11.9043 28.6602 11.5792C28.0405 11.2435 27.342 11.0757 26.5648 11.0757C25.7771 11.0757 25.0733 11.2435 24.4536 11.5792C23.8339 11.9148 23.3298 12.3815 22.9412 12.9794C22.5525 13.5667 22.311 14.2432 22.2164 15.0088Z" fill="#3E01A4"/>
<path d="M34.6017 22.4661L35.484 19.0993C35.8306 19.4454 36.2613 19.7601 36.7759 20.0433C37.2906 20.3264 37.8368 20.5519 38.4144 20.7198C39.0026 20.8771 39.5751 20.9558 40.1317 20.9558C40.8775 20.9558 41.4762 20.8037 41.9278 20.4995C42.3795 20.1849 42.6053 19.7758 42.6053 19.2724C42.6053 18.8738 42.4687 18.5434 42.1956 18.2812C41.9226 18.0085 41.5654 17.7725 41.1243 17.5733C40.6832 17.3635 40.2 17.159 39.6748 16.9597C38.9816 16.708 38.2779 16.409 37.5637 16.0629C36.8494 15.7063 36.2508 15.2396 35.7676 14.6627C35.295 14.0754 35.0586 13.2992 35.0586 12.3343C35.0586 11.4009 35.295 10.5932 35.7676 9.9115C36.2508 9.22976 36.923 8.70534 37.7842 8.33825C38.6455 7.96067 39.6486 7.77188 40.7934 7.77188C42.6 7.77188 44.4013 8.22288 46.1974 9.12488L45.0788 12.3029C44.7427 12.0511 44.3331 11.8204 43.8499 11.6106C43.3668 11.4009 42.8731 11.233 42.3689 11.1072C41.8648 10.9813 41.4079 10.9184 40.9983 10.9184C40.3996 10.9184 39.9217 11.0495 39.5646 11.3117C39.2074 11.5739 39.0289 11.92 39.0289 12.35C39.0289 12.6437 39.1287 12.9112 39.3282 13.1524C39.5278 13.3832 39.8376 13.6087 40.2578 13.8289C40.6779 14.0492 41.2188 14.2956 41.8805 14.5683C42.5948 14.841 43.309 15.1609 44.0232 15.528C44.748 15.8846 45.3519 16.3618 45.835 16.9597C46.3287 17.547 46.5755 18.3284 46.5755 19.3038C46.5755 20.2688 46.3129 21.1131 45.7878 21.8368C45.2731 22.5605 44.5484 23.1268 43.6136 23.5359C42.6893 23.9344 41.6075 24.1337 40.3681 24.1337C38.3094 24.1337 36.3873 23.5778 34.6017 22.4661Z" fill="#3E01A4"/>
<path d="M49.6969 3.9174C49.1507 3.9174 48.6886 3.72861 48.3105 3.35103C47.9428 2.96296 47.759 2.49623 47.759 1.95084C47.759 1.41593 47.9428 0.959685 48.3105 0.582104C48.6886 0.194035 49.1507 0 49.6969 0C50.2536 0 50.721 0.194035 51.0991 0.582104C51.4772 0.959685 51.6663 1.41593 51.6663 1.95084C51.6663 2.49623 51.4772 2.96296 51.0991 3.35103C50.721 3.72861 50.2536 3.9174 49.6969 3.9174ZM51.6348 23.8191H47.759V8.08653H51.6348V23.8191Z" fill="#3E01A4"/>
<path d="M60.491 23.9449C59.031 23.9449 57.7286 23.5936 56.5837 22.8909C55.4389 22.1881 54.5356 21.2284 53.8739 20.0118C53.2122 18.7847 52.8813 17.4002 52.8813 15.8584C52.8813 14.3061 53.2122 12.9217 53.8739 11.705C54.5356 10.4884 55.4389 9.52868 56.5837 8.82596C57.7286 8.12324 59.031 7.77188 60.491 7.77188C61.6358 7.77188 62.6914 7.99213 63.6577 8.43264C64.624 8.87316 65.4433 9.48672 66.1155 10.2734L66.3046 8.08653H69.7076V23.3943C69.7076 25.1354 69.3348 26.6509 68.589 27.941C67.8538 29.2311 66.814 30.2275 65.4695 30.9302C64.1251 31.6434 62.5339 32 60.6958 32C58.1435 32 55.859 31.1872 53.8424 29.5615L55.4336 26.3992C56.8411 27.8151 58.5111 28.5231 60.4437 28.5231C61.536 28.5231 62.4813 28.3029 63.2796 27.8623C64.0883 27.4323 64.7133 26.8187 65.1544 26.0216C65.6061 25.235 65.8319 24.312 65.8319 23.2527V21.7424C65.1597 22.4346 64.3667 22.9748 63.4529 23.3628C62.5391 23.7509 61.5518 23.9449 60.491 23.9449ZM61.3417 20.4995C62.1715 20.4995 62.9225 20.316 63.5947 19.9489C64.2774 19.5713 64.8183 19.0574 65.2175 18.4071C65.6271 17.7568 65.8319 17.0174 65.8319 16.1888V15.4966C65.8319 14.668 65.6271 13.9338 65.2175 13.294C64.8183 12.6542 64.2774 12.1508 63.5947 11.7837C62.912 11.4061 62.161 11.2173 61.3417 11.2173C60.4805 11.2173 59.7085 11.4218 59.0257 11.8309C58.343 12.2294 57.8021 12.7801 57.403 13.4828C57.0144 14.1855 56.82 14.9774 56.82 15.8584C56.82 16.7394 57.0144 17.5313 57.403 18.234C57.8021 18.9367 58.343 19.4926 59.0257 19.9017C59.7085 20.3002 60.4805 20.4995 61.3417 20.4995Z" fill="#3E01A4"/>
<path d="M87.1976 23.8191H83.3218V15.5123C83.3218 14.2012 82.9857 13.1681 82.3135 12.413C81.6413 11.6473 80.7328 11.2645 79.5879 11.2645C78.4115 11.2645 77.4662 11.6683 76.752 12.4759C76.0378 13.273 75.6807 14.3481 75.6807 15.7011V23.8191H71.8049V8.08653H75.0032L75.1292 10.6195C75.6964 9.69649 76.4422 8.99377 77.3664 8.51131C78.3012 8.01835 79.3936 7.77188 80.6435 7.77188C82.6811 7.77188 84.2829 8.39069 85.4488 9.62832C86.6146 10.8659 87.1976 12.5755 87.1976 14.7571V23.8191Z" fill="#3E01A4"/>
<path d="M105.099 23.41C103.944 23.8925 102.825 24.1337 101.743 24.1337C100.64 24.1337 99.6688 23.8977 98.8285 23.4258C97.9988 22.9538 97.3476 22.2983 96.8749 21.4592C96.4128 20.6096 96.1817 19.6237 96.1817 18.5015V11.5477H93.4246V8.08653H96.3865V4.15339H100.057V8.08653H104.548V11.5477H100.057V17.7935C100.057 18.685 100.299 19.3877 100.782 19.9017C101.276 20.4156 101.89 20.6726 102.625 20.6726C103.277 20.6726 103.923 20.4733 104.563 20.0747L105.099 23.41Z" fill="#3E01A4"/>
<path d="M113.404 24.1337C111.797 24.1337 110.358 23.7771 109.087 23.0639C107.827 22.3507 106.829 21.3805 106.093 20.1534C105.369 18.9158 105.006 17.5156 105.006 15.9528C105.006 14.39 105.369 12.9951 106.093 11.7679C106.829 10.5303 107.827 9.5549 109.087 8.84169C110.358 8.12848 111.797 7.77188 113.404 7.77188C115 7.77188 116.429 8.12848 117.689 8.84169C118.95 9.5549 119.937 10.5303 120.651 11.7679C121.376 12.9951 121.738 14.39 121.738 15.9528C121.738 17.5156 121.376 18.9158 120.651 20.1534C119.937 21.3805 118.95 22.3507 117.689 23.0639C116.429 23.7771 115 24.1337 113.404 24.1337ZM113.372 20.6568C114.213 20.6568 114.964 20.4523 115.625 20.0433C116.287 19.6342 116.807 19.0731 117.185 18.3599C117.574 17.6467 117.768 16.8391 117.768 15.9371C117.768 15.0456 117.574 14.2484 117.185 13.5457C116.807 12.8325 116.287 12.2714 115.625 11.8623C114.964 11.4533 114.213 11.2488 113.372 11.2488C112.543 11.2488 111.792 11.4533 111.119 11.8623C110.458 12.2714 109.932 12.8325 109.544 13.5457C109.166 14.2484 108.977 15.0456 108.977 15.9371C108.977 16.8391 109.166 17.6467 109.544 18.3599C109.932 19.0731 110.458 19.6342 111.119 20.0433C111.792 20.4523 112.543 20.6568 113.372 20.6568Z" fill="#3E01A4"/>
</g>
<g id="Design To Code_2">
<path d="M141.892 21.6327C141.136 22.4298 140.243 23.0486 139.214 23.4891C138.195 23.9192 137.092 24.1342 135.906 24.1342C134.351 24.1342 132.954 23.7776 131.715 23.0644C130.486 22.3512 129.514 21.3757 128.8 20.1381C128.086 18.9005 127.729 17.5055 127.729 15.9533C127.729 14.3905 128.086 12.9955 128.8 11.7684C129.514 10.5308 130.486 9.55535 131.715 8.84214C132.954 8.12893 134.351 7.77233 135.906 7.77233C137.082 7.77233 138.185 7.98734 139.214 8.41736C140.243 8.84738 141.131 9.46095 141.877 10.2581L140.695 11.5009C140.107 10.8821 139.403 10.4049 138.584 10.0693C137.775 9.72316 136.909 9.5501 135.984 9.5501C134.776 9.5501 133.7 9.82805 132.755 10.3839C131.82 10.9293 131.079 11.6845 130.533 12.6494C129.997 13.6143 129.73 14.7104 129.73 15.9375C129.73 17.1751 129.997 18.2817 130.533 19.2571C131.079 20.222 131.82 20.9824 132.755 21.5383C133.7 22.0837 134.776 22.3564 135.984 22.3564C136.909 22.3564 137.78 22.1886 138.6 21.853C139.419 21.5068 140.117 21.0244 140.695 20.4056L141.892 21.6327Z" fill="#FE2712"/>
<path d="M150.875 24.1342C149.32 24.1342 147.923 23.7776 146.684 23.0644C145.445 22.3512 144.468 21.381 143.753 20.1538C143.039 18.9162 142.682 17.516 142.682 15.9533C142.682 14.401 143.039 13.0113 143.753 11.7841C144.468 10.5465 145.445 9.57108 146.684 8.85787C147.923 8.13417 149.32 7.77233 150.875 7.77233C152.419 7.77233 153.805 8.13417 155.034 8.85787C156.263 9.57108 157.234 10.5465 157.949 11.7841C158.663 13.0113 159.02 14.401 159.02 15.9533C159.02 17.5055 158.663 18.9005 157.949 20.1381C157.234 21.3757 156.263 22.3512 155.034 23.0644C153.805 23.7776 152.419 24.1342 150.875 24.1342ZM150.859 22.3879C152.035 22.3879 153.086 22.1047 154.01 21.5383C154.945 20.9719 155.68 20.2063 156.216 19.2414C156.762 18.2659 157.035 17.1647 157.035 15.9375C157.035 14.7314 156.762 13.6458 156.216 12.6809C155.68 11.7055 154.945 10.9346 154.01 10.3682C153.086 9.80182 152.035 9.51864 150.859 9.51864C149.683 9.51864 148.627 9.80182 147.692 10.3682C146.757 10.9346 146.017 11.7055 145.471 12.6809C144.935 13.6458 144.667 14.7314 144.667 15.9375C144.667 17.1647 144.935 18.2659 145.471 19.2414C146.017 20.2063 146.757 20.9719 147.692 21.5383C148.627 22.1047 149.683 22.3879 150.859 22.3879Z" fill="#FE2712"/>
<path d="M176.211 23.8195H174.462L174.367 20.7989C173.695 21.8372 172.792 22.6553 171.657 23.2532C170.534 23.8405 169.284 24.1342 167.908 24.1342C166.353 24.1342 164.962 23.7776 163.733 23.0644C162.514 22.3512 161.548 21.3757 160.834 20.1381C160.13 18.9005 159.778 17.5055 159.778 15.9533C159.778 14.3905 160.13 12.9955 160.834 11.7684C161.548 10.5308 162.514 9.55535 163.733 8.84214C164.962 8.12893 166.353 7.77233 167.908 7.77233C169.252 7.77233 170.481 8.06076 171.594 8.63762C172.708 9.20399 173.601 9.99061 174.273 10.9975V0.220703H176.211V23.8195ZM168.034 22.3879C169.179 22.3879 170.224 22.1257 171.169 21.6012C172.114 21.0663 172.865 20.3426 173.422 19.4301C173.989 18.5072 174.273 17.4636 174.273 16.2994V15.5914C174.273 14.4377 173.994 13.4046 173.438 12.4921C172.881 11.5691 172.13 10.8454 171.185 10.321C170.25 9.78609 169.2 9.51864 168.034 9.51864C166.847 9.51864 165.776 9.80182 164.82 10.3682C163.874 10.9241 163.129 11.6897 162.583 12.6651C162.036 13.6301 161.763 14.7209 161.763 15.9375C161.763 17.1647 162.036 18.2659 162.583 19.2414C163.129 20.2063 163.874 20.9719 164.82 21.5383C165.765 22.1047 166.836 22.3879 168.034 22.3879Z" fill="#FE2712"/>
<path d="M193.165 21.853C191.232 23.3738 189.09 24.1342 186.737 24.1342C185.109 24.1342 183.649 23.7723 182.357 23.0486C181.076 22.3144 180.067 21.3181 179.332 20.0594C178.597 18.8008 178.229 17.3744 178.229 15.7802C178.229 14.2384 178.571 12.8644 179.253 11.6583C179.946 10.4521 180.892 9.50291 182.089 8.81067C183.287 8.11844 184.647 7.77233 186.17 7.77233C187.714 7.77233 189.074 8.13942 190.25 8.8736C191.427 9.5973 192.346 10.6042 193.007 11.8943C193.669 13.1738 194 14.6579 194 16.3466V16.8343H180.325C180.451 17.9356 180.813 18.9005 181.412 19.7291C182.021 20.5576 182.798 21.2027 183.743 21.6642C184.689 22.1257 185.75 22.3564 186.926 22.3564C188.859 22.3564 190.634 21.7166 192.251 20.437L193.165 21.853ZM180.262 15.1666H192.188C192.094 14.0444 191.784 13.0637 191.259 12.2246C190.733 11.3856 190.04 10.73 189.179 10.2581C188.328 9.78609 187.357 9.5501 186.264 9.5501C185.161 9.5501 184.169 9.78609 183.287 10.2581C182.415 10.73 181.711 11.3908 181.175 12.2404C180.65 13.0794 180.346 14.0549 180.262 15.1666Z" fill="#FE2712"/>
</g>
</g>
</g>
</svg>
