<svg width="43" height="44" viewBox="0 0 43 44" fill="none" xmlns="http://www.w3.org/2000/svg">
<g id="Union">
<path fill-rule="evenodd" clip-rule="evenodd" d="M26.7908 2.21154H5.02981C3.47189 2.21154 2.20894 3.4772 2.20894 5.03846V38.9615C2.20894 40.5228 3.47189 41.7885 5.02981 41.7885H26.7908C28.3487 41.7885 29.6116 40.5228 29.6116 38.9615V5.03846C29.6116 3.47719 28.3487 2.21154 26.7908 2.21154ZM5.02981 1C2.80421 1 1 2.80808 1 5.03846V38.9615C1 41.1919 2.80421 43 5.02981 43H26.7908C29.0164 43 30.8206 41.1919 30.8206 38.9615V5.03846C30.8206 2.80808 29.0164 1 26.7908 1H5.02981ZM5.02992 7.66387C5.02992 7.32932 5.30055 7.05811 5.63439 7.05811H25.3804C25.7143 7.05811 25.9849 7.32932 25.9849 7.66387C25.9849 7.99843 25.7143 8.26964 25.3804 8.26964H5.63439C5.30055 8.26964 5.02992 7.99843 5.02992 7.66387ZM5.63439 21.5962C5.30055 21.5962 5.02992 21.8674 5.02992 22.202C5.02992 22.5365 5.30055 22.8077 5.63439 22.8077H25.3804C25.7143 22.8077 25.9849 22.5365 25.9849 22.202C25.9849 21.8674 25.7143 21.5962 25.3804 21.5962H5.63439ZM5.02992 12.5096C5.02992 12.175 5.30055 11.9038 5.63439 11.9038H25.3804C25.7143 11.9038 25.9849 12.175 25.9849 12.5096C25.9849 12.8441 25.7143 13.1153 25.3804 13.1153H5.63439C5.30055 13.1153 5.02992 12.8441 5.02992 12.5096ZM5.63439 26.4419C5.30055 26.4419 5.02992 26.7131 5.02992 27.0477C5.02992 27.3822 5.30055 27.6534 5.63439 27.6534H25.3804C25.7143 27.6534 25.9849 27.3822 25.9849 27.0477C25.9849 26.7131 25.7143 26.4419 25.3804 26.4419H5.63439ZM5.02992 17.3558C5.02992 17.0212 5.30055 16.75 5.63439 16.75H25.3804C25.7143 16.75 25.9849 17.0212 25.9849 17.3558C25.9849 17.6903 25.7143 17.9615 25.3804 17.9615H5.63439C5.30055 17.9615 5.02992 17.6903 5.02992 17.3558ZM5.63439 31.2886C5.30055 31.2886 5.02992 31.5598 5.02992 31.8943C5.02992 32.2289 5.30055 32.5001 5.63439 32.5001H25.3804C25.7143 32.5001 25.9849 32.2289 25.9849 31.8943C25.9849 31.5598 25.7143 31.2886 25.3804 31.2886H5.63439ZM5.02992 36.7405C5.02992 36.406 5.30055 36.1348 5.63439 36.1348H18.1268C18.4606 36.1348 18.7313 36.406 18.7313 36.7405C18.7313 37.0751 18.4606 37.3463 18.1268 37.3463H5.63439C5.30055 37.3463 5.02992 37.0751 5.02992 36.7405ZM38.0741 1.75537C40.3282 1.75537 41.9999 3.535 41.9999 5.79393V9.78028V34.7614C41.9999 34.8943 41.9999 35.16 41.8673 35.2929L39.2154 40.8738C38.9502 41.4053 38.5524 41.6711 38.0221 41.6711C37.4917 41.6711 37.0939 41.2724 36.8287 40.8738L34.1769 35.2929C34.0443 35.16 34.0443 34.8943 34.0443 34.7614V9.78028V5.79393C34.0443 3.535 35.82 1.75537 38.0741 1.75537ZM38.0741 2.96691C37.2785 2.96691 35.2532 3.7747 35.2532 5.79393V9.78028H40.8949V5.79393C40.8949 3.42286 38.8696 2.96691 38.0741 2.96691ZM38.0221 40.5768L40.8949 34.7614V11.1091H35.2532V34.7614L38.0221 40.5768Z" fill="#4E585F"/>
<path d="M41.8673 35.2929L41.7611 35.1869L41.7429 35.2052L41.7318 35.2285L41.8673 35.2929ZM39.2154 40.8738L39.3497 40.9408L39.3509 40.9382L39.2154 40.8738ZM36.8287 40.8738L36.6932 40.9382L36.6979 40.9479L36.7038 40.9569L36.8287 40.8738ZM34.1769 35.2929L34.3123 35.2285L34.3013 35.2052L34.283 35.1869L34.1769 35.2929ZM35.2532 9.78028H35.1032V9.93028H35.2532V9.78028ZM40.8949 9.78028V9.93028H41.0449V9.78028H40.8949ZM40.8949 34.7614L41.0294 34.8278L41.0449 34.7964V34.7614H40.8949ZM38.0221 40.5768L37.8866 40.6412L38.0196 40.9205L38.1566 40.6432L38.0221 40.5768ZM40.8949 11.1091H41.0449V10.9591H40.8949V11.1091ZM35.2532 11.1091V10.9591H35.1032V11.1091H35.2532ZM35.2532 34.7614H35.1032V34.7953L35.1178 34.8259L35.2532 34.7614ZM5.02981 2.36154H26.7908V2.06154H5.02981V2.36154ZM2.35894 5.03846C2.35894 3.55973 3.55503 2.36154 5.02981 2.36154V2.06154C3.38874 2.06154 2.05894 3.39466 2.05894 5.03846H2.35894ZM2.35894 38.9615V5.03846H2.05894V38.9615H2.35894ZM5.02981 41.6385C3.55503 41.6385 2.35894 40.4403 2.35894 38.9615H2.05894C2.05894 40.6053 3.38874 41.9385 5.02981 41.9385V41.6385ZM26.7908 41.6385H5.02981V41.9385H26.7908V41.6385ZM29.4616 38.9615C29.4616 40.4403 28.2655 41.6385 26.7908 41.6385V41.9385C28.4318 41.9385 29.7616 40.6053 29.7616 38.9615H29.4616ZM29.4616 5.03846V38.9615H29.7616V5.03846H29.4616ZM26.7908 2.36154C28.2655 2.36154 29.4616 3.55973 29.4616 5.03846H29.7616C29.7616 3.39466 28.4318 2.06154 26.7908 2.06154V2.36154ZM1.15 5.03846C1.15 2.89062 2.88735 1.15 5.02981 1.15V0.85C2.72106 0.85 0.85 2.72554 0.85 5.03846H1.15ZM1.15 38.9615V5.03846H0.85V38.9615H1.15ZM5.02981 42.85C2.88735 42.85 1.15 41.1094 1.15 38.9615H0.85C0.85 41.2745 2.72106 43.15 5.02981 43.15V42.85ZM26.7908 42.85H5.02981V43.15H26.7908V42.85ZM30.6706 38.9615C30.6706 41.1094 28.9332 42.85 26.7908 42.85V43.15C29.0995 43.15 30.9706 41.2745 30.9706 38.9615H30.6706ZM30.6706 5.03846V38.9615H30.9706V5.03846H30.6706ZM26.7908 1.15C28.9332 1.15 30.6706 2.89062 30.6706 5.03846H30.9706C30.9706 2.72554 29.0995 0.85 26.7908 0.85V1.15ZM5.02981 1.15H26.7908V0.85H5.02981V1.15ZM5.63439 6.90811C5.2174 6.90811 4.87992 7.24678 4.87992 7.66387H5.17992C5.17992 7.41186 5.3837 7.20811 5.63439 7.20811V6.90811ZM25.3804 6.90811H5.63439V7.20811H25.3804V6.90811ZM26.1349 7.66387C26.1349 7.24678 25.7974 6.90811 25.3804 6.90811V7.20811C25.6311 7.20811 25.8349 7.41186 25.8349 7.66387H26.1349ZM25.3804 8.41964C25.7974 8.41964 26.1349 8.08097 26.1349 7.66387H25.8349C25.8349 7.91589 25.6311 8.11964 25.3804 8.11964V8.41964ZM5.63439 8.41964H25.3804V8.11964H5.63439V8.41964ZM4.87992 7.66387C4.87992 8.08097 5.2174 8.41964 5.63439 8.41964V8.11964C5.3837 8.11964 5.17992 7.91589 5.17992 7.66387H4.87992ZM5.17992 22.202C5.17992 21.9499 5.3837 21.7462 5.63439 21.7462V21.4462C5.2174 21.4462 4.87992 21.7849 4.87992 22.202H5.17992ZM5.63439 22.6577C5.3837 22.6577 5.17992 22.454 5.17992 22.202H4.87992C4.87992 22.6191 5.2174 22.9577 5.63439 22.9577V22.6577ZM25.3804 22.6577H5.63439V22.9577H25.3804V22.6577ZM25.8349 22.202C25.8349 22.454 25.6311 22.6577 25.3804 22.6577V22.9577C25.7974 22.9577 26.1349 22.6191 26.1349 22.202H25.8349ZM25.3804 21.7462C25.6311 21.7462 25.8349 21.9499 25.8349 22.202H26.1349C26.1349 21.7849 25.7974 21.4462 25.3804 21.4462V21.7462ZM5.63439 21.7462H25.3804V21.4462H5.63439V21.7462ZM5.63439 11.7538C5.2174 11.7538 4.87992 12.0925 4.87992 12.5096H5.17992C5.17992 12.2576 5.3837 12.0538 5.63439 12.0538V11.7538ZM25.3804 11.7538H5.63439V12.0538H25.3804V11.7538ZM26.1349 12.5096C26.1349 12.0925 25.7974 11.7538 25.3804 11.7538V12.0538C25.6311 12.0538 25.8349 12.2576 25.8349 12.5096H26.1349ZM25.3804 13.2653C25.7974 13.2653 26.1349 12.9267 26.1349 12.5096H25.8349C25.8349 12.7616 25.6311 12.9653 25.3804 12.9653V13.2653ZM5.63439 13.2653H25.3804V12.9653H5.63439V13.2653ZM4.87992 12.5096C4.87992 12.9267 5.2174 13.2653 5.63439 13.2653V12.9653C5.3837 12.9653 5.17992 12.7616 5.17992 12.5096H4.87992ZM5.17992 27.0477C5.17992 26.7956 5.3837 26.5919 5.63439 26.5919V26.2919C5.2174 26.2919 4.87992 26.6306 4.87992 27.0477H5.17992ZM5.63439 27.5034C5.3837 27.5034 5.17992 27.2997 5.17992 27.0477H4.87992C4.87992 27.4648 5.2174 27.8034 5.63439 27.8034V27.5034ZM25.3804 27.5034H5.63439V27.8034H25.3804V27.5034ZM25.8349 27.0477C25.8349 27.2997 25.6311 27.5034 25.3804 27.5034V27.8034C25.7974 27.8034 26.1349 27.4648 26.1349 27.0477H25.8349ZM25.3804 26.5919C25.6311 26.5919 25.8349 26.7956 25.8349 27.0477H26.1349C26.1349 26.6306 25.7974 26.2919 25.3804 26.2919V26.5919ZM5.63439 26.5919H25.3804V26.2919H5.63439V26.5919ZM5.63439 16.6C5.2174 16.6 4.87992 16.9387 4.87992 17.3558H5.17992C5.17992 17.1038 5.3837 16.9 5.63439 16.9V16.6ZM25.3804 16.6H5.63439V16.9H25.3804V16.6ZM26.1349 17.3558C26.1349 16.9387 25.7974 16.6 25.3804 16.6V16.9C25.6311 16.9 25.8349 17.1038 25.8349 17.3558H26.1349ZM25.3804 18.1115C25.7974 18.1115 26.1349 17.7729 26.1349 17.3558H25.8349C25.8349 17.6078 25.6311 17.8115 25.3804 17.8115V18.1115ZM5.63439 18.1115H25.3804V17.8115H5.63439V18.1115ZM4.87992 17.3558C4.87992 17.7729 5.2174 18.1115 5.63439 18.1115V17.8115C5.3837 17.8115 5.17992 17.6078 5.17992 17.3558H4.87992ZM5.17992 31.8943C5.17992 31.6423 5.3837 31.4386 5.63439 31.4386V31.1386C5.2174 31.1386 4.87992 31.4772 4.87992 31.8943H5.17992ZM5.63439 32.3501C5.3837 32.3501 5.17992 32.1464 5.17992 31.8943H4.87992C4.87992 32.3114 5.2174 32.6501 5.63439 32.6501V32.3501ZM25.3804 32.3501H5.63439V32.6501H25.3804V32.3501ZM25.8349 31.8943C25.8349 32.1464 25.6311 32.3501 25.3804 32.3501V32.6501C25.7974 32.6501 26.1349 32.3114 26.1349 31.8943H25.8349ZM25.3804 31.4386C25.6311 31.4386 25.8349 31.6423 25.8349 31.8943H26.1349C26.1349 31.4772 25.7974 31.1386 25.3804 31.1386V31.4386ZM5.63439 31.4386H25.3804V31.1386H5.63439V31.4386ZM5.63439 35.9848C5.2174 35.9848 4.87992 36.3234 4.87992 36.7405H5.17992C5.17992 36.4885 5.3837 36.2848 5.63439 36.2848V35.9848ZM18.1268 35.9848H5.63439V36.2848H18.1268V35.9848ZM18.8813 36.7405C18.8813 36.3234 18.5438 35.9848 18.1268 35.9848V36.2848C18.3775 36.2848 18.5813 36.4885 18.5813 36.7405H18.8813ZM18.1268 37.4963C18.5438 37.4963 18.8813 37.1576 18.8813 36.7405H18.5813C18.5813 36.9926 18.3775 37.1963 18.1268 37.1963V37.4963ZM5.63439 37.4963H18.1268V37.1963H5.63439V37.4963ZM4.87992 36.7405C4.87992 37.1576 5.2174 37.4963 5.63439 37.4963V37.1963C5.3837 37.1963 5.17992 36.9926 5.17992 36.7405H4.87992ZM42.1499 5.79393C42.1499 3.45768 40.4164 1.60537 38.0741 1.60537V1.90537C40.2399 1.90537 41.8499 3.61232 41.8499 5.79393H42.1499ZM42.1499 9.78028V5.79393H41.8499V9.78028H42.1499ZM42.1499 34.7614V9.78028H41.8499V34.7614H42.1499ZM41.9735 35.3988C42.073 35.2991 42.113 35.1618 42.1313 35.0518C42.1502 34.9383 42.1499 34.827 42.1499 34.7614H41.8499C41.8499 34.8287 41.8496 34.9167 41.8353 35.0025C41.8205 35.0918 41.7942 35.1538 41.7611 35.1869L41.9735 35.3988ZM39.3509 40.9382L42.0028 35.3573L41.7318 35.2285L39.0799 40.8094L39.3509 40.9382ZM38.0221 41.8211C38.3136 41.8211 38.5753 41.7476 38.8015 41.5965C39.0268 41.446 39.2082 41.2243 39.3496 40.9408L39.0812 40.8068C38.9575 41.0548 38.8074 41.2317 38.6349 41.347C38.4633 41.4616 38.2609 41.5211 38.0221 41.5211V41.8211ZM36.7038 40.9569C36.975 41.3645 37.4119 41.8211 38.0221 41.8211V41.5211C37.5715 41.5211 37.2128 41.1804 36.9536 40.7907L36.7038 40.9569ZM34.0414 35.3573L36.6932 40.9382L36.9642 40.8094L34.3123 35.2285L34.0414 35.3573ZM33.8943 34.7614C33.8943 34.827 33.894 34.9383 33.9129 35.0518C33.9312 35.1618 33.9712 35.2991 34.0707 35.3988L34.283 35.1869C34.2499 35.1538 34.2237 35.0918 34.2088 35.0025C34.1945 34.9167 34.1943 34.8287 34.1943 34.7614H33.8943ZM33.8943 9.78028V34.7614H34.1943V9.78028H33.8943ZM33.8943 5.79393V9.78028H34.1943V5.79393H33.8943ZM38.0741 1.60537C35.7368 1.60537 33.8943 3.45246 33.8943 5.79393H34.1943C34.1943 3.61753 35.9031 1.90537 38.0741 1.90537V1.60537ZM35.4032 5.79393C35.4032 4.84188 35.8782 4.17608 36.4553 3.74321C37.0386 3.30575 37.7128 3.11691 38.0741 3.11691V2.81691C37.6398 2.81691 36.9036 3.03197 36.2753 3.50321C35.6409 3.97904 35.1032 4.72675 35.1032 5.79393H35.4032ZM35.4032 9.78028V5.79393H35.1032V9.78028H35.4032ZM40.8949 9.63028H35.2532V9.93028H40.8949V9.63028ZM40.7449 5.79393V9.78028H41.0449V5.79393H40.7449ZM38.0741 3.11691C38.4506 3.11691 39.1241 3.22621 39.6987 3.61546C40.2644 3.99865 40.7449 4.65945 40.7449 5.79393H41.0449C41.0449 4.55735 40.5129 3.80463 39.867 3.36708C39.23 2.93558 38.4931 2.81691 38.0741 2.81691V3.11691ZM40.7605 34.6949L37.8876 40.5103L38.1566 40.6432L41.0294 34.8278L40.7605 34.6949ZM40.7449 11.1091V34.7614H41.0449V11.1091H40.7449ZM35.2532 11.2591H40.8949V10.9591H35.2532V11.2591ZM35.4032 34.7614V11.1091H35.1032V34.7614H35.4032ZM38.1575 40.5123L35.3886 34.6969L35.1178 34.8259L37.8866 40.6412L38.1575 40.5123Z" fill="#4E585F"/>
</g>
</svg>
