<svg width="46" height="42" viewBox="0 0 46 42" fill="none" xmlns="http://www.w3.org/2000/svg">
<g id="Vector">
<path d="M13.8 26.6246C12.8902 26.6246 12.0008 26.8943 11.2444 27.3995C10.4879 27.9047 9.89832 28.6228 9.55015 29.4629C9.20199 30.303 9.1109 31.2275 9.28839 32.1193C9.46588 33.0112 9.90399 33.8304 10.5473 34.4734C11.1906 35.1164 12.0103 35.5543 12.9026 35.7317C13.7949 35.9091 14.7198 35.8181 15.5603 35.4701C16.4009 35.1221 17.1193 34.5328 17.6248 33.7767C18.1302 33.0206 18.4 32.1317 18.4 31.2224C18.3987 30.0034 17.9136 28.8347 17.0512 27.9727C16.1888 27.1108 15.0196 26.626 13.8 26.6246ZM13.8 34.2875C13.1935 34.2875 12.6006 34.1077 12.0963 33.7709C11.5919 33.4341 11.1989 32.9554 10.9668 32.3953C10.7347 31.8352 10.6739 31.2189 10.7923 30.6244C10.9106 30.0298 11.2027 29.4836 11.6315 29.055C12.0604 28.6263 12.6068 28.3344 13.2017 28.2161C13.7966 28.0978 14.4132 28.1585 14.9736 28.3905C15.5339 28.6225 16.0129 29.0154 16.3498 29.5194C16.6868 30.0235 16.8667 30.6161 16.8667 31.2224C16.8658 32.035 16.5424 32.8141 15.9675 33.3888C15.3926 33.9634 14.6131 34.2866 13.8 34.2875Z" fill="#4E585F"/>
<path d="M29.5665 14.1278L25.1203 15.8392L29.5714 17.5869C30.5023 17.9524 30.039 19.7619 28.9858 19.3052L23.7536 17.0356C23.5248 16.9322 23.3308 16.765 23.1947 16.5541C23.0587 16.3432 22.9864 16.0976 22.9865 15.8466C22.9866 15.5957 23.0591 15.3501 23.1954 15.1393C23.3316 14.9285 23.5258 14.7615 23.7547 14.6583L28.9865 12.3945C30.0446 11.9368 30.4996 13.7687 29.5665 14.1278ZM32.465 20.0001L34.4353 11.8851C34.591 11.2868 34.753 10.4598 33.8603 10.4598C33.2306 10.4598 33.1316 11.084 33.017 11.5863L31.0467 19.7013C30.947 20.167 30.7187 20.8243 31.2753 21.0759C32.0687 21.4345 32.3347 20.5715 32.465 20.0001ZM36.5053 19.3177L41.7447 17.0337C41.9713 16.9308 42.1634 16.7648 42.298 16.5555C42.4326 16.3462 42.5039 16.1026 42.5035 15.8538C42.503 15.605 42.4308 15.3617 42.2954 15.1529C42.1601 14.9441 41.9674 14.7788 41.7404 14.6767L36.5027 12.4162C35.4513 11.9624 34.9873 13.7671 35.9227 14.128L40.377 15.8468L35.9178 17.6016C34.9868 17.9684 35.4531 19.7764 36.5053 19.3177Z" fill="#4E585F"/>
<path d="M29.1333 4.59773H10.7333C10.5346 4.59085 10.3463 4.5071 10.2081 4.36414C10.07 4.22119 9.99277 4.0302 9.99277 3.83144C9.99277 3.63268 10.07 3.44169 10.2081 3.29874C10.3463 3.15578 10.5346 3.07203 10.7333 3.06515H29.1333C29.3321 3.07203 29.5204 3.15578 29.6585 3.29874C29.7967 3.44169 29.8739 3.63268 29.8739 3.83144C29.8739 4.0302 29.7967 4.22119 29.6585 4.36414C29.5204 4.5071 29.3321 4.59085 29.1333 4.59773Z" fill="#4E585F"/>
<path d="M42.9333 3.83144C42.9333 4.05878 42.8659 4.28101 42.7395 4.47003C42.6132 4.65905 42.4336 4.80638 42.2234 4.89338C42.0133 4.98037 41.7821 5.00314 41.559 4.95879C41.3359 4.91443 41.131 4.80496 40.9702 4.64421C40.8093 4.48346 40.6998 4.27865 40.6554 4.05568C40.6111 3.83272 40.6338 3.6016 40.7209 3.39157C40.8079 3.18154 40.9553 3.00202 41.1444 2.87572C41.3335 2.74942 41.5559 2.68201 41.7833 2.68201C42.0883 2.68201 42.3808 2.80311 42.5965 3.01867C42.8122 3.23423 42.9333 3.52659 42.9333 3.83144Z" fill="#4E585F"/>
<path d="M39.8667 3.83144C39.8667 4.05878 39.7992 4.28101 39.6729 4.47003C39.5465 4.65905 39.3669 4.80638 39.1567 4.89338C38.9466 4.98037 38.7154 5.00314 38.4923 4.95879C38.2692 4.91443 38.0643 4.80496 37.9035 4.64421C37.7427 4.48346 37.6331 4.27865 37.5888 4.05568C37.5444 3.83272 37.5672 3.6016 37.6542 3.39157C37.7412 3.18154 37.8886 3.00202 38.0778 2.87572C38.2669 2.74942 38.4892 2.68201 38.7167 2.68201C39.0217 2.68201 39.3142 2.80311 39.5298 3.01867C39.7455 3.23423 39.8667 3.52659 39.8667 3.83144Z" fill="#4E585F"/>
<path d="M43.7 0H2.3C1.69021 0.000669336 1.10558 0.243085 0.674394 0.674061C0.243205 1.10504 0.000669667 1.68937 0 2.29886V34.2875C0.000669667 34.897 0.243205 35.4813 0.674394 35.9123C1.10558 36.3433 1.69021 36.5857 2.3 36.5864H4.16952C4.20227 36.1019 4.33886 35.6301 4.57002 35.2031C4.54856 35.1536 4.52778 35.1034 4.507 35.0538H2.3C2.09673 35.0536 1.90184 34.9728 1.75811 34.8291C1.61438 34.6855 1.53354 34.4907 1.53333 34.2875V7.66288H44.4667V34.2875C44.4665 34.4907 44.3856 34.6855 44.2419 34.8291C44.0982 34.9728 43.9033 35.0536 43.7 35.0538H23.0926C23.0719 35.1037 23.0512 35.1534 23.0299 35.2031C23.2611 35.6301 23.3976 36.1019 23.4303 36.5864H43.7C44.3098 36.5857 44.8944 36.3433 45.3256 35.9123C45.7568 35.4813 45.9993 34.897 46 34.2875V2.29886C45.9993 1.68937 45.7568 1.10504 45.3256 0.674061C44.8944 0.243085 44.3098 0.000669336 43.7 0ZM1.53333 6.1303V2.29886C1.53354 2.09569 1.61438 1.9009 1.75811 1.75724C1.90184 1.61358 2.09673 1.53278 2.3 1.53258H43.7C43.9033 1.53278 44.0982 1.61358 44.2419 1.75724C44.3856 1.9009 44.4665 2.09569 44.4667 2.29886V6.1303H1.53333Z" fill="#4E585F"/>
<path d="M22.824 28.9213L21.973 28.8191C21.7986 28.2279 21.5612 27.6572 21.2648 27.1167L21.4901 26.7904C22.9888 24.9847 20.0327 22.047 18.234 23.5359L17.9076 23.7615C17.3668 23.4652 16.7957 23.2277 16.2043 23.0532L16.1069 22.2431C15.9479 19.8766 11.6541 19.8276 11.4972 22.2031L11.3954 23.0537C10.8041 23.228 10.2333 23.4653 9.69281 23.7616C8.52832 22.957 7.56255 22.936 6.53629 23.9618C5.51003 24.9875 5.53112 25.952 6.33566 27.1167C6.03925 27.6573 5.80178 28.2282 5.62733 28.8195L4.81727 28.9171C2.44935 29.0733 2.39882 33.3703 4.7761 33.5234L5.6271 33.6256C5.80152 34.2168 6.03897 34.7875 6.33535 35.328L6.11003 35.6543C4.61503 37.4556 7.56232 40.4021 9.36614 38.9088L9.69258 38.6832C10.2334 38.9795 10.8044 39.217 11.3959 39.3915L11.4933 40.2016C11.6523 42.5681 15.9461 42.6171 16.103 40.2416L16.2048 39.391C16.7961 39.2167 17.3669 38.9794 17.9073 38.6831L18.2338 38.9087C20.0367 40.4006 22.986 37.4569 21.4899 35.6542L21.2646 35.3279C21.561 34.7873 21.7984 34.2164 21.9728 33.625L22.7829 33.5274C25.3 33.5276 25.3 28.9213 22.824 28.9213ZM23 31.2224C23 32.7549 20.7 31.2223 20.6161 32.7568C20.5021 33.554 20.1893 34.3098 19.7065 34.9546C19.6267 35.0816 19.5859 35.2292 19.5893 35.3791C19.5926 35.529 19.6399 35.6747 19.7252 35.798L20.2507 36.5572C20.6055 37.073 19.6498 38.0252 19.1375 37.6699L18.3785 37.1449C18.2548 37.0604 18.1092 37.0135 17.9594 37.0102C17.8096 37.0068 17.662 37.047 17.5347 37.1258C16.8578 37.5503 16.1142 37.8577 15.335 38.035C14.6573 38.1899 14.7064 39.007 14.6426 39.5446C14.5643 40.2006 14.5053 40.4178 13.8 40.4178C13.1393 40.4178 13.0388 40.2169 12.9637 39.5902C12.8985 39.0461 12.9522 38.192 12.2652 38.0346C11.4861 37.8573 10.7424 37.55 10.0656 37.1255C9.33279 36.6671 8.39822 38.1737 7.92879 37.7073L7.31185 37.0899C6.85638 36.636 8.34478 35.6723 7.8936 34.9542C7.46894 34.2779 7.16141 33.5348 6.98395 32.7563C6.68763 31.457 4.52333 32.7799 4.55262 31.2224C4.58168 29.6734 6.68825 30.9853 6.9838 29.6881C7.16126 28.9096 7.46878 28.1665 7.89345 27.4902C8.37277 26.7277 7.27643 26.2934 7.27245 25.6161C7.28502 25.4718 7.33109 25.3324 7.40699 25.209C7.48289 25.0856 7.58654 24.9816 7.7097 24.9052C7.83285 24.8289 7.97213 24.7823 8.11645 24.7691C8.26078 24.756 8.40619 24.7767 8.54113 24.8295C9.00258 25.0989 9.48037 25.6849 10.0651 25.3189C10.742 24.8944 11.4856 24.5871 12.2647 24.4097C13.5646 24.1127 12.2418 21.9511 13.7999 21.9797C15.3491 22.0081 14.0371 24.1133 15.3344 24.4097C16.1135 24.5871 16.8572 24.8944 17.534 25.3189C18.0646 25.6518 18.5555 25.1706 18.973 24.8883C19.4309 24.5787 19.6026 24.6688 19.9793 25.0458C20.3315 25.3983 20.4628 25.5565 20.1662 26.0091C19.8825 26.4421 19.3586 26.9374 19.7062 27.4901C20.189 28.1349 20.5018 28.8907 20.6158 29.688C20.7 31.2223 23 29.6898 23 31.2224Z" fill="#4E585F"/>
</g>
</svg>
