<svg width="37" height="42" viewBox="0 0 37 42" fill="none" xmlns="http://www.w3.org/2000/svg">
<path id="Vector" d="M20.2627 34.3832C20.2627 34.7588 19.9632 35.0611 19.5912 35.0611H17.4043C17.0322 35.0611 16.7328 34.7588 16.7328 34.3832C16.7328 34.0076 17.0322 33.7053 17.4043 33.7053H19.5912C19.9632 33.7053 20.2627 34.0076 20.2627 34.3832ZM31.492 19.8824V32.3679C31.492 32.3679 31.492 32.3863 31.492 32.4C31.492 32.4092 31.492 32.4183 31.492 32.4321V35.2214C31.492 36.2428 30.6662 37.0763 29.6544 37.0763H23.0575V38.4321H27.4993C28.13 38.4321 28.6472 38.9496 28.6472 39.5908V40.8412C28.6472 41.4779 28.1345 42 27.4993 42H9.50067C8.87002 42 8.35279 41.4824 8.35279 40.8412V39.5908C8.35279 38.9542 8.86548 38.4321 9.50067 38.4321H13.9425V37.0763H7.34555C6.33378 37.0763 5.50803 36.2428 5.50803 35.2214V32.5328C5.50803 32.5053 5.50803 32.4779 5.51257 32.4504C5.51257 32.4229 5.50803 32.3954 5.50803 32.3679V19.8824C5.50803 18.8611 6.33378 18.0275 7.34555 18.0275H11.4834V16.0626H11.4607C11.0887 16.0626 10.7892 15.7603 10.7892 15.3847V12.4031C10.7892 12.0275 11.0887 11.7252 11.4607 11.7252H25.5348C25.9068 11.7252 26.2063 12.0275 26.2063 12.4031V15.3847C26.2063 15.7603 25.9068 16.0626 25.5348 16.0626H25.5121V18.0275H29.6499C30.6617 18.0275 31.4874 18.8611 31.4874 19.8824H31.492ZM24.1736 16.058H20.3988V24.5313H24.1736V16.058ZM19.0558 24.5313V16.058H17.9442V24.5313H19.0558ZM12.1322 14.7023H24.8633V13.0763H12.1322V14.7023ZM12.8264 16.058V24.5313H16.6012V16.058H12.8264ZM6.85101 31.6855H30.149V19.8779C30.149 19.6031 29.9267 19.3786 29.6544 19.3786H25.5166V25.2092C25.5166 25.5847 25.2172 25.887 24.8451 25.887H12.1549C11.7828 25.887 11.4834 25.5847 11.4834 25.2092V19.3786H7.34555C7.07333 19.3786 6.85101 19.6031 6.85101 19.8779V31.6855ZM27.3042 39.7832H9.69577V40.6397H27.2997V39.7832H27.3042ZM21.7145 37.0718H15.29V38.4275H21.7145V37.0718ZM30.149 35.2168V33.0412H6.84647V35.2168C6.84647 35.4916 7.06879 35.716 7.34102 35.716H29.6454C29.9176 35.716 30.1399 35.4916 30.1399 35.2168H30.149ZM4.1469 15.9985C3.89736 16.8916 3.08069 17.5511 2.11429 17.5511C0.948253 17.5511 0 16.5939 0 15.4168C0 14.2397 0.948253 13.2824 2.11429 13.2824C3.00809 13.2824 3.77486 13.8458 4.08338 14.6427H9.07419C9.44623 14.6427 9.74568 14.945 9.74568 15.3206C9.74568 15.6962 9.44623 15.9985 9.07419 15.9985H4.1469ZM2.88559 15.4168C2.88559 14.9863 2.54077 14.6382 2.11429 14.6382C1.6878 14.6382 1.34298 14.9863 1.34298 15.4168C1.34298 15.8473 1.6878 16.1954 2.11429 16.1954C2.54077 16.1954 2.88559 15.8473 2.88559 15.4168ZM25.4667 9.95725L28.0937 5.36794C27.8215 5.00611 27.6581 4.55725 27.6581 4.07176C27.6581 2.89466 28.6064 1.9374 29.7724 1.9374C30.9384 1.9374 31.8867 2.89466 31.8867 4.07176C31.8867 5.24886 30.9384 6.20611 29.7724 6.20611C29.5773 6.20611 29.3913 6.17863 29.2143 6.12824L26.6373 10.6351C26.5148 10.8504 26.2879 10.974 26.0565 10.974C25.9431 10.974 25.8251 10.9466 25.7208 10.8824C25.3986 10.6947 25.2898 10.2824 25.4758 9.95725H25.4667ZM28.9966 4.07176C28.9966 4.50229 29.3414 4.85038 29.7679 4.85038C30.1944 4.85038 30.5392 4.50229 30.5392 4.07176C30.5392 3.64122 30.1944 3.29313 29.7679 3.29313C29.3414 3.29313 28.9966 3.64122 28.9966 4.07176ZM36.9955 15.3527C36.9955 16.5298 36.0472 17.487 34.8812 17.487C33.9601 17.487 33.1798 16.8916 32.8894 16.0626H27.9031C27.5311 16.0626 27.2316 15.7603 27.2316 15.3847C27.2316 15.0092 27.5311 14.7069 27.9031 14.7069H32.8712C33.1435 13.8458 33.942 13.2183 34.8857 13.2183C36.0517 13.2183 37 14.1756 37 15.3527H36.9955ZM35.6525 15.3527C35.6525 14.9221 35.3077 14.574 34.8812 14.574C34.4547 14.574 34.1099 14.9221 34.1099 15.3527C34.1099 15.7832 34.4547 16.1313 34.8812 16.1313C35.3077 16.1313 35.6525 15.7832 35.6525 15.3527ZM16.3834 2.13435C16.3834 0.957252 17.3317 0 18.4977 0C19.6638 0 20.612 0.957252 20.612 2.13435C20.612 3.07328 20.0086 3.87481 19.1692 4.15878V9.99847C19.1692 10.374 18.8698 10.6763 18.4977 10.6763C18.1257 10.6763 17.8262 10.374 17.8262 9.99847V4.1542C16.9869 3.87023 16.3834 3.07328 16.3834 2.12977V2.13435ZM17.7264 2.13435C17.7264 2.56489 18.0712 2.91298 18.4977 2.91298C18.9242 2.91298 19.269 2.56489 19.269 2.13435C19.269 1.70382 18.9242 1.35573 18.4977 1.35573C18.0712 1.35573 17.7264 1.70382 17.7264 2.13435ZM5.21766 4.07176C5.21766 2.89466 6.16591 1.9374 7.33194 1.9374C8.49798 1.9374 9.44623 2.89466 9.44623 4.07176C9.44623 4.59389 9.26021 5.07481 8.94715 5.4458L11.5015 9.91145C11.6876 10.2366 11.5787 10.6489 11.2565 10.8366C11.1522 10.8962 11.0342 10.9282 10.9208 10.9282C10.6894 10.9282 10.4625 10.8046 10.34 10.5893L7.8038 6.15115C7.65408 6.18779 7.49528 6.20611 7.33194 6.20611C6.16591 6.20611 5.21766 5.24886 5.21766 4.07176ZM6.56064 4.07176C6.56064 4.50229 6.90546 4.85038 7.33194 4.85038C7.75843 4.85038 8.10325 4.50229 8.10325 4.07176C8.10325 3.64122 7.75843 3.29313 7.33194 3.29313C6.90546 3.29313 6.56064 3.64122 6.56064 4.07176Z" fill="#4E585F"/>
</svg>
