<svg width="127" height="22" viewBox="0 0 127 22" fill="none" xmlns="http://www.w3.org/2000/svg">
<g id="Logo">
<g id="design To Code">
<path d="M11.1362 15.7638H8.89852L8.76446 14.3201C8.31762 14.8357 7.77454 15.2413 7.13521 15.5369C6.49589 15.8257 5.80157 15.97 5.05225 15.97C4.08295 15.97 3.21676 15.7363 2.4537 15.2688C1.69063 14.8014 1.08912 14.1655 0.649149 13.3612C0.216058 12.55 -0.000488281 11.6322 -0.000488281 10.6079C-0.000488281 9.58363 0.216058 8.66933 0.649149 7.86501C1.08912 7.05382 1.69063 6.4145 2.4537 5.94703C3.21676 5.47957 4.08295 5.24584 5.05225 5.24584C5.76032 5.24584 6.41683 5.37302 7.02178 5.62737C7.62674 5.88173 8.15264 6.2392 8.59948 6.69979V0.296219H11.1362V15.7638ZM5.60908 13.6911C6.15904 13.6911 6.66088 13.5674 7.11459 13.3199C7.56831 13.0655 7.92922 12.7184 8.19732 12.2784C8.46542 11.8385 8.59948 11.3366 8.59948 10.7729V10.412C8.59948 9.85517 8.46542 9.36021 8.19732 8.92712C7.92922 8.48715 7.56831 8.14343 7.11459 7.89595C6.66088 7.64159 6.15904 7.51441 5.60908 7.51441C5.03163 7.51441 4.51604 7.6519 4.06232 7.92688C3.60861 8.19499 3.25114 8.56277 2.98991 9.03024C2.72868 9.49082 2.59806 10.0133 2.59806 10.5976C2.59806 11.1888 2.72868 11.7182 2.98991 12.1856C3.25114 12.6531 3.60861 13.0209 4.06232 13.289C4.51604 13.5571 5.03163 13.6911 5.60908 13.6911Z" fill="white"/>
<path d="M21.9647 14.5676C20.6792 15.5026 19.2733 15.97 17.7472 15.97C16.6404 15.97 15.647 15.7294 14.7671 15.2482C13.8872 14.767 13.1894 14.1105 12.6738 13.2787C12.1651 12.44 11.9108 11.4982 11.9108 10.4533C11.9108 9.45645 12.1411 8.56621 12.6017 7.78252C13.0691 6.99883 13.705 6.38013 14.5093 5.92641C15.3205 5.4727 16.2348 5.24584 17.2522 5.24584C18.3109 5.24584 19.239 5.49676 20.0364 5.99859C20.8407 6.49356 21.4663 7.18444 21.9131 8.07125C22.36 8.95118 22.5834 9.97548 22.5834 11.1441V11.4741H14.6434C14.7671 11.9416 14.9837 12.354 15.293 12.7115C15.6092 13.069 16.0011 13.3474 16.4685 13.5468C16.936 13.7461 17.4619 13.8458 18.0462 13.8458C19.1462 13.8458 20.1636 13.4883 21.0985 12.7734L21.9647 14.5676ZM14.5403 9.98922H20.2323C20.1773 9.47364 20.0192 9.02336 19.758 8.63839C19.5036 8.25342 19.1702 7.95438 18.7577 7.74127C18.3522 7.52129 17.895 7.4113 17.3863 7.4113C16.8707 7.4113 16.4101 7.52129 16.0045 7.74127C15.5989 7.96126 15.269 8.26717 15.0146 8.65901C14.7602 9.04398 14.6021 9.48739 14.5403 9.98922Z" fill="white"/>
<path d="M22.6465 14.877L23.224 12.6703C23.4508 12.8971 23.7327 13.1034 24.0695 13.289C24.4064 13.4746 24.7638 13.6224 25.1419 13.7324C25.5269 13.8355 25.9016 13.887 26.2659 13.887C26.754 13.887 27.1458 13.7874 27.4414 13.588C27.737 13.3818 27.8848 13.1137 27.8848 12.7837C27.8848 12.5225 27.7955 12.3059 27.6167 12.1341C27.438 11.9553 27.2043 11.8006 26.9155 11.67C26.6268 11.5325 26.3106 11.3985 25.9669 11.2679C25.5132 11.1029 25.0526 10.907 24.5851 10.6801C24.1176 10.4464 23.7258 10.1405 23.4096 9.76237C23.1002 9.3774 22.9455 8.86869 22.9455 8.23623C22.9455 7.62441 23.1002 7.09507 23.4096 6.64823C23.7258 6.20139 24.1658 5.85767 24.7295 5.61706C25.2932 5.36958 25.9497 5.24584 26.699 5.24584C27.8814 5.24584 29.0604 5.54144 30.2359 6.13265L29.5038 8.21561C29.2838 8.05062 29.0157 7.89938 28.6995 7.7619C28.3832 7.62441 28.0601 7.51441 27.7302 7.43192C27.4002 7.34943 27.1012 7.30818 26.8331 7.30818C26.4412 7.30818 26.1284 7.39411 25.8947 7.56597C25.661 7.73783 25.5441 7.96469 25.5441 8.24655C25.5441 8.43903 25.6094 8.61433 25.74 8.77244C25.8706 8.92368 26.0734 9.07148 26.3484 9.21585C26.6234 9.36021 26.9774 9.52176 27.4105 9.7005C27.878 9.87923 28.3454 10.0889 28.8129 10.3295C29.2872 10.5632 29.6825 10.876 29.9987 11.2679C30.3218 11.6528 30.4834 12.165 30.4834 12.8043C30.4834 13.4368 30.3115 13.9902 29.9678 14.4645C29.631 14.9388 29.1566 15.3101 28.5448 15.5782C27.9398 15.8394 27.2318 15.97 26.4206 15.97C25.0732 15.97 23.8152 15.6057 22.6465 14.877Z" fill="white"/>
<path d="M32.5263 2.71947C32.1689 2.71947 31.8664 2.59573 31.6189 2.34825C31.3783 2.09389 31.258 1.78798 31.258 1.43051C31.258 1.07991 31.3783 0.78087 31.6189 0.533389C31.8664 0.279033 32.1689 0.151855 32.5263 0.151855C32.8907 0.151855 33.1966 0.279033 33.4441 0.533389C33.6916 0.78087 33.8153 1.07991 33.8153 1.43051C33.8153 1.78798 33.6916 2.09389 33.4441 2.34825C33.1966 2.59573 32.8907 2.71947 32.5263 2.71947ZM33.7947 15.7638H31.258V5.45207H33.7947V15.7638Z" fill="white"/>
<path d="M39.5911 15.8463C38.6356 15.8463 37.7831 15.616 37.0338 15.1554C36.2845 14.6948 35.6933 14.0658 35.2602 13.2683C34.8271 12.464 34.6106 11.5566 34.6106 10.5461C34.6106 9.52863 34.8271 8.6212 35.2602 7.82377C35.6933 7.02633 36.2845 6.39731 37.0338 5.93672C37.7831 5.47613 38.6356 5.24584 39.5911 5.24584C40.3404 5.24584 41.0313 5.3902 41.6638 5.67893C42.2962 5.96766 42.8324 6.36981 43.2724 6.8854L43.3961 5.45207H45.6235V15.4854C45.6235 16.6265 45.3794 17.6199 44.8913 18.4654C44.4101 19.311 43.7295 19.9641 42.8496 20.4247C41.9697 20.8921 40.9282 21.1259 39.7252 21.1259C38.0547 21.1259 36.5595 20.5931 35.2396 19.5276L36.281 17.4549C37.2022 18.383 38.2953 18.847 39.5602 18.847C40.2751 18.847 40.8938 18.7026 41.4163 18.4139C41.9456 18.132 42.3546 17.7299 42.6434 17.2074C42.939 16.6918 43.0868 16.0869 43.0868 15.3926V14.4026C42.6468 14.8563 42.1278 15.2104 41.5297 15.4647C40.9316 15.7191 40.2854 15.8463 39.5911 15.8463ZM40.1479 13.588C40.691 13.588 41.1825 13.4677 41.6225 13.2271C42.0694 12.9796 42.4234 12.6428 42.6846 12.2166C42.9527 11.7903 43.0868 11.3057 43.0868 10.7626V10.3089C43.0868 9.7658 42.9527 9.28459 42.6846 8.86525C42.4234 8.44591 42.0694 8.11593 41.6225 7.87532C41.1757 7.62784 40.6842 7.5041 40.1479 7.5041C39.5842 7.5041 39.079 7.63815 38.6321 7.90626C38.1853 8.16749 37.8312 8.5284 37.57 8.98899C37.3157 9.44958 37.1885 9.9686 37.1885 10.5461C37.1885 11.1235 37.3157 11.6425 37.57 12.1031C37.8312 12.5637 38.1853 12.9281 38.6321 13.1962C39.079 13.4574 39.5842 13.588 40.1479 13.588Z" fill="white"/>
<path d="M57.0707 15.7638H54.534V10.3192C54.534 9.45989 54.314 8.78275 53.8741 8.28779C53.4341 7.78596 52.8395 7.53504 52.0901 7.53504C51.3202 7.53504 50.7015 7.79971 50.234 8.32904C49.7666 8.8515 49.5328 9.55613 49.5328 10.4429V15.7638H46.9962V5.45207H49.0894L49.1719 7.11226C49.5431 6.5073 50.0312 6.04671 50.6362 5.73049C51.248 5.40739 51.963 5.24584 52.781 5.24584C54.1147 5.24584 55.163 5.65143 55.9261 6.46262C56.6892 7.27381 57.0707 8.39435 57.0707 9.82424V15.7638Z" fill="white"/>
<path d="M68.7873 15.4957C68.0311 15.8119 67.2989 15.97 66.5909 15.97C65.8691 15.97 65.2332 15.8153 64.6832 15.506C64.1401 15.1966 63.7139 14.767 63.4046 14.217C63.1021 13.6602 62.9508 13.014 62.9508 12.2784V7.72065H61.1463V5.45207H63.0849V2.87415H65.4875V5.45207H68.4264V7.72065H65.4875V11.8144C65.4875 12.3987 65.6456 12.8593 65.9619 13.1962C66.285 13.533 66.6871 13.7014 67.1683 13.7014C67.5945 13.7014 68.0173 13.5708 68.4367 13.3096L68.7873 15.4957Z" fill="white"/>
<path d="M74.2228 15.97C73.171 15.97 72.2292 15.7363 71.3974 15.2688C70.5724 14.8014 69.9193 14.1655 69.4381 13.3612C68.9638 12.55 68.7266 11.6322 68.7266 10.6079C68.7266 9.58363 68.9638 8.66933 69.4381 7.86501C69.9193 7.05382 70.5724 6.4145 71.3974 5.94703C72.2292 5.47957 73.171 5.24584 74.2228 5.24584C75.2677 5.24584 76.2026 5.47957 77.0276 5.94703C77.8525 6.4145 78.4987 7.05382 78.9662 7.86501C79.4405 8.66933 79.6777 9.58363 79.6777 10.6079C79.6777 11.6322 79.4405 12.55 78.9662 13.3612C78.4987 14.1655 77.8525 14.8014 77.0276 15.2688C76.2026 15.7363 75.2677 15.97 74.2228 15.97ZM74.2021 13.6911C74.7521 13.6911 75.2436 13.5571 75.6767 13.289C76.1098 13.0209 76.4501 12.6531 76.6976 12.1856C76.9519 11.7182 77.0791 11.1888 77.0791 10.5976C77.0791 10.0133 76.9519 9.49082 76.6976 9.03024C76.4501 8.56277 76.1098 8.19499 75.6767 7.92688C75.2436 7.65878 74.7521 7.52473 74.2021 7.52473C73.6591 7.52473 73.1675 7.65878 72.7276 7.92688C72.2945 8.19499 71.9508 8.56277 71.6964 9.03024C71.4489 9.49082 71.3252 10.0133 71.3252 10.5976C71.3252 11.1888 71.4489 11.7182 71.6964 12.1856C71.9508 12.6531 72.2945 13.0209 72.7276 13.289C73.1675 13.5571 73.6591 13.6911 74.2021 13.6911Z" fill="white"/>
<path d="M92.8688 14.3305C92.3739 14.8529 91.7895 15.2585 91.1158 15.5472C90.449 15.8291 89.7272 15.97 88.9504 15.97C87.9329 15.97 87.0186 15.7363 86.2075 15.2688C85.4031 14.8014 84.7673 14.162 84.2998 13.3508C83.8323 12.5397 83.5986 11.6253 83.5986 10.6079C83.5986 9.58363 83.8323 8.66933 84.2998 7.86501C84.7673 7.05382 85.4031 6.4145 86.2075 5.94703C87.0186 5.47957 87.9329 5.24584 88.9504 5.24584C89.7203 5.24584 90.4421 5.38677 91.1158 5.66862C91.7895 5.95047 92.3704 6.35263 92.8585 6.87509L92.0851 7.68971C91.7002 7.28412 91.2396 6.97133 90.7034 6.75135C90.174 6.52449 89.6069 6.41106 89.0019 6.41106C88.2114 6.41106 87.5067 6.59324 86.888 6.95758C86.2762 7.31505 85.7915 7.81002 85.4341 8.44247C85.0835 9.07492 84.9082 9.7933 84.9082 10.5976C84.9082 11.4088 85.0835 12.1341 85.4341 12.7734C85.7915 13.4058 86.2762 13.9042 86.888 14.2686C87.5067 14.6261 88.2114 14.8048 89.0019 14.8048C89.6069 14.8048 90.1775 14.6948 90.7137 14.4748C91.2499 14.248 91.707 13.9317 92.0851 13.5261L92.8688 14.3305Z" fill="white"/>
<path d="M98.7477 15.97C97.7303 15.97 96.816 15.7363 96.0048 15.2688C95.1936 14.8014 94.5543 14.1655 94.0868 13.3612C93.6194 12.55 93.3856 11.6322 93.3856 10.6079C93.3856 9.5905 93.6194 8.67964 94.0868 7.87532C94.5543 7.06414 95.1936 6.42481 96.0048 5.95735C96.816 5.48301 97.7303 5.24584 98.7477 5.24584C99.7583 5.24584 100.666 5.48301 101.47 5.95735C102.274 6.42481 102.91 7.06414 103.378 7.87532C103.845 8.67964 104.079 9.5905 104.079 10.6079C104.079 11.6253 103.845 12.5397 103.378 13.3508C102.91 14.162 102.274 14.8014 101.47 15.2688C100.666 15.7363 99.7583 15.97 98.7477 15.97ZM98.7374 14.8254C99.5074 14.8254 100.195 14.6398 100.8 14.2686C101.412 13.8974 101.893 13.3955 102.243 12.7631C102.601 12.1237 102.78 11.4019 102.78 10.5976C102.78 9.80705 102.601 9.09554 102.243 8.46309C101.893 7.82377 101.412 7.31849 100.8 6.94727C100.195 6.57605 99.5074 6.39044 98.7374 6.39044C97.9675 6.39044 97.2766 6.57605 96.6648 6.94727C96.0529 7.31849 95.5683 7.82377 95.2108 8.46309C94.8602 9.09554 94.6849 9.80705 94.6849 10.5976C94.6849 11.4019 94.8602 12.1237 95.2108 12.7631C95.5683 13.3955 96.0529 13.8974 96.6648 14.2686C97.2766 14.6398 97.9675 14.8254 98.7374 14.8254Z" fill="white"/>
<path d="M115.33 15.7638H114.186L114.124 13.7839C113.684 14.4645 113.093 15.0007 112.35 15.3926C111.615 15.7775 110.796 15.97 109.896 15.97C108.878 15.97 107.968 15.7363 107.163 15.2688C106.366 14.8014 105.733 14.162 105.266 13.3508C104.805 12.5397 104.575 11.6253 104.575 10.6079C104.575 9.58363 104.805 8.66933 105.266 7.86501C105.733 7.05382 106.366 6.4145 107.163 5.94703C107.968 5.47957 108.878 5.24584 109.896 5.24584C110.776 5.24584 111.58 5.43489 112.309 5.81298C113.038 6.1842 113.622 6.69979 114.062 7.35974V0.296219H115.33V15.7638ZM109.978 14.8254C110.728 14.8254 111.412 14.6536 112.03 14.3098C112.649 13.9592 113.141 13.4849 113.505 12.8868C113.876 12.2819 114.062 11.5979 114.062 10.8348V10.3708C114.062 9.61457 113.88 8.93743 113.515 8.33935C113.151 7.7344 112.659 7.26006 112.041 6.91634C111.429 6.56574 110.741 6.39044 109.978 6.39044C109.202 6.39044 108.5 6.57605 107.875 6.94727C107.256 7.31162 106.768 7.81345 106.411 8.45278C106.053 9.08523 105.874 9.80018 105.874 10.5976C105.874 11.4019 106.053 12.1237 106.411 12.7631C106.768 13.3955 107.256 13.8974 107.875 14.2686C108.494 14.6398 109.195 14.8254 109.978 14.8254Z" fill="white"/>
<path d="M126.427 14.4748C125.162 15.4716 123.76 15.97 122.22 15.97C121.154 15.97 120.199 15.7328 119.353 15.2585C118.514 14.7773 117.854 14.1242 117.373 13.2993C116.892 12.4743 116.651 11.5394 116.651 10.4945C116.651 9.48395 116.875 8.5834 117.322 7.79283C117.775 7.00227 118.394 6.38013 119.178 5.92641C119.961 5.4727 120.852 5.24584 121.848 5.24584C122.859 5.24584 123.749 5.48645 124.519 5.96766C125.289 6.442 125.891 7.10195 126.324 7.94751C126.757 8.78619 126.973 9.75893 126.973 10.8657V11.1854H118.023C118.105 11.9072 118.342 12.5397 118.734 13.0827C119.133 13.6258 119.642 14.0486 120.26 14.3511C120.879 14.6536 121.573 14.8048 122.343 14.8048C123.608 14.8048 124.77 14.3854 125.829 13.5468L126.427 14.4748ZM117.982 10.0923H125.788C125.726 9.35677 125.523 8.71401 125.179 8.16405C124.835 7.61409 124.382 7.18444 123.818 6.87509C123.261 6.56574 122.625 6.41106 121.91 6.41106C121.188 6.41106 120.539 6.56574 119.961 6.87509C119.391 7.18444 118.93 7.61753 118.58 8.17436C118.236 8.72432 118.037 9.36365 117.982 10.0923Z" fill="white"/>
</g>
</g>
</svg>
