<svg width="42" height="42" viewBox="0 0 42 42" fill="none" xmlns="http://www.w3.org/2000/svg">
<g id="Vector">
<path d="M18.375 34.125H3.28125C2.41133 34.124 1.57733 33.7779 0.962207 33.1628C0.347079 32.5477 0.00104203 31.7137 0 30.8438V3.28125C0.00104203 2.41133 0.347079 1.57733 0.962207 0.962207C1.57733 0.347079 2.41133 0.00104203 3.28125 0H4.59375V1.3125H3.28125C2.7591 1.3125 2.25835 1.51992 1.88913 1.88913C1.51992 2.25835 1.3125 2.7591 1.3125 3.28125V30.8438C1.3125 31.3659 1.51992 31.8667 1.88913 32.2359C2.25835 32.6051 2.7591 32.8125 3.28125 32.8125H18.375V34.125Z" fill="#4E585F"/>
<path d="M7.21941 0H5.90625V1.3125H7.21941V0Z" fill="#4E585F"/>
<path d="M38.7188 34.125V32.8125C39.2409 32.8125 39.7417 32.6051 40.1109 32.2359C40.4801 31.8667 40.6875 31.3659 40.6875 30.8438V3.28125C40.6875 2.7591 40.4801 2.25835 40.1109 1.88913C39.7417 1.51992 39.2409 1.3125 38.7188 1.3125H8.53125V0H38.7188C39.5887 0.00104203 40.4227 0.347079 41.0378 0.962207C41.6529 1.57733 41.999 2.41133 42 3.28125V30.8438C41.999 31.7137 41.6529 32.5477 41.0378 33.1628C40.4227 33.7779 39.5887 34.124 38.7188 34.125Z" fill="#4E585F"/>
<path d="M13.1449 33.31L12.4884 35.9348L13.7617 36.2533L14.4182 33.6284L13.1449 33.31Z" fill="#4E585F"/>
<path d="M18.375 39.375H11.8125C11.6385 39.375 11.4715 39.3059 11.3485 39.1828C11.2254 39.0597 11.1562 38.8928 11.1562 38.7188V37.4062C11.1562 36.8841 11.3637 36.3833 11.7329 36.0141C12.1021 35.6449 12.6029 35.4375 13.125 35.4375H18.375V36.75H13.125C12.951 36.75 12.784 36.8191 12.661 36.9422C12.5379 37.0653 12.4688 37.2322 12.4688 37.4062V38.0625H18.375V39.375Z" fill="#4E585F"/>
<path d="M18.375 27.5625H0.65625V28.875H18.375V27.5625Z" fill="#4E585F"/>
<path d="M3.9375 30.1875H2.625V31.5H3.9375V30.1875Z" fill="#4E585F"/>
<path d="M9.1875 30.1875H5.25V31.5H9.1875V30.1875Z" fill="#4E585F"/>
<path d="M36.0938 42H22.9688C22.0988 41.999 21.2648 41.6529 20.6497 41.0378C20.0346 40.4227 19.6885 39.5887 19.6875 38.7188V12.4688C19.6885 11.5988 20.0346 10.7648 20.6497 10.1497C21.2648 9.53458 22.0988 9.18854 22.9688 9.1875H36.0938C36.9637 9.18854 37.7977 9.53458 38.4128 10.1497C39.0279 10.7648 39.374 11.5988 39.375 12.4688V38.7188C39.374 39.5887 39.0279 40.4227 38.4128 41.0378C37.7977 41.6529 36.9637 41.999 36.0938 42ZM22.9688 10.5C22.4466 10.5 21.9458 10.7074 21.5766 11.0766C21.2074 11.4458 21 11.9466 21 12.4688V38.7188C21 39.2409 21.2074 39.7417 21.5766 40.1109C21.9458 40.4801 22.4466 40.6875 22.9688 40.6875H36.0938C36.6159 40.6875 37.1167 40.4801 37.4859 40.1109C37.8551 39.7417 38.0625 39.2409 38.0625 38.7188V12.4688C38.0625 11.9466 37.8551 11.4458 37.4859 11.0766C37.1167 10.7074 36.6159 10.5 36.0938 10.5H22.9688Z" fill="#4E585F"/>
<path d="M32.8125 15.75H26.25C25.0202 15.75 24.505 14.679 24.3423 13.7812H20.3438V12.4688H24.9375C25.1115 12.4688 25.2785 12.5379 25.4015 12.661C25.5246 12.784 25.5938 12.951 25.5938 13.125C25.5938 13.1362 25.6305 14.4375 26.25 14.4375H32.8125C33.432 14.4375 33.4688 13.1362 33.4688 13.125C33.4688 12.951 33.5379 12.784 33.661 12.661C33.784 12.5379 33.951 12.4688 34.125 12.4688H38.7188V13.7812H34.7202C34.5575 14.679 34.0423 15.75 32.8125 15.75Z" fill="#4E585F"/>
<path d="M32.1562 11.8125H26.9062V13.125H32.1562V11.8125Z" fill="#4E585F"/>
<path d="M32.1562 38.7188H26.9062V40.0312H32.1562V38.7188Z" fill="#4E585F"/>
<path d="M38.7188 36.75H20.3438V38.0625H38.7188V36.75Z" fill="#4E585F"/>
<path d="M11.8125 18.375H9.1875C9.01345 18.375 8.84653 18.3059 8.72346 18.1828C8.60039 18.0597 8.53125 17.8928 8.53125 17.7188V16.7567C8.1648 16.6413 7.80926 16.4937 7.46878 16.3157L6.78759 16.9969C6.66453 17.1199 6.49764 17.189 6.32362 17.189C6.14961 17.189 5.98272 17.1199 5.85966 16.9969L4.00312 15.1403C3.8801 15.0173 3.81098 14.8504 3.81098 14.6764C3.81098 14.5024 3.8801 14.3355 4.00312 14.2124L4.68366 13.5312C4.50588 13.1907 4.35853 12.8352 4.24331 12.4688H3.28125C3.1072 12.4688 2.94028 12.3996 2.81721 12.2765C2.69414 12.1535 2.625 11.9865 2.625 11.8125V9.1875C2.625 9.01345 2.69414 8.84653 2.81721 8.72346C2.94028 8.60039 3.1072 8.53125 3.28125 8.53125H4.24331C4.35874 8.1648 4.50631 7.80926 4.68431 7.46878L4.00312 6.78759C3.8801 6.66453 3.81098 6.49764 3.81098 6.32362C3.81098 6.14961 3.8801 5.98272 4.00312 5.85966L5.85966 4.00312C5.98272 3.8801 6.14961 3.81098 6.32362 3.81098C6.49764 3.81098 6.66453 3.8801 6.78759 4.00312L7.46878 4.68366C7.80928 4.50588 8.16482 4.35853 8.53125 4.24331V3.28125C8.53125 3.1072 8.60039 2.94028 8.72346 2.81721C8.84653 2.69414 9.01345 2.625 9.1875 2.625H11.8125C11.9865 2.625 12.1535 2.69414 12.2765 2.81721C12.3996 2.94028 12.4688 3.1072 12.4688 3.28125V4.24331C12.8352 4.35874 13.1907 4.50631 13.5312 4.68431L14.2124 4.00312C14.3355 3.8801 14.5024 3.81098 14.6764 3.81098C14.8504 3.81098 15.0173 3.8801 15.1403 4.00312L16.9969 5.85966C17.1199 5.98272 17.189 6.14961 17.189 6.32362C17.189 6.49764 17.1199 6.66453 16.9969 6.78759L16.3163 7.46878C16.4941 7.80928 16.6415 8.16482 16.7567 8.53125H17.7188C17.8928 8.53125 18.0597 8.60039 18.1828 8.72346C18.3059 8.84653 18.375 9.01345 18.375 9.1875V11.8125C18.375 11.9865 18.3059 12.1535 18.1828 12.2765C18.0597 12.3996 17.8928 12.4688 17.7188 12.4688H16.7567C16.6413 12.8352 16.4937 13.1907 16.3157 13.5312L16.9969 14.2124C17.1199 14.3355 17.189 14.5024 17.189 14.6764C17.189 14.8504 17.1199 15.0173 16.9969 15.1403L15.1403 16.9969C15.0173 17.1199 14.8504 17.189 14.6764 17.189C14.5024 17.189 14.3355 17.1199 14.2124 16.9969L13.5312 16.3163C13.1907 16.4941 12.8352 16.6415 12.4688 16.7567V17.7188C12.4688 17.8928 12.3996 18.0597 12.2765 18.1828C12.1535 18.3059 11.9865 18.375 11.8125 18.375ZM9.84375 17.0625H11.1562V16.2553C11.1561 16.1065 11.2066 15.962 11.2993 15.8456C11.3921 15.7292 11.5217 15.6479 11.6668 15.6148C12.2421 15.4839 12.7909 15.256 13.2897 14.9408C13.4157 14.8614 13.5649 14.8271 13.7129 14.8437C13.8609 14.8603 13.9989 14.9267 14.1041 15.0321L14.6764 15.6043L15.6043 14.6764L15.0321 14.1041C14.9267 13.9989 14.8603 13.8609 14.8437 13.7129C14.8271 13.5649 14.8614 13.4157 14.9408 13.2897C15.256 12.7909 15.4839 12.2421 15.6148 11.6668C15.6479 11.5217 15.7292 11.3921 15.8456 11.2993C15.962 11.2066 16.1065 11.1561 16.2553 11.1562H17.0625V9.84375H16.2553C16.1065 9.84389 15.962 9.79344 15.8456 9.70066C15.7292 9.60789 15.6479 9.47831 15.6148 9.33319C15.4839 8.75787 15.256 8.20906 14.9408 7.71028C14.8614 7.58433 14.8271 7.43509 14.8437 7.28709C14.8603 7.13909 14.9267 7.00113 15.0321 6.89588L15.6043 6.32362L14.6764 5.39569L14.1041 5.96794C13.9989 6.07329 13.8609 6.13972 13.7129 6.15629C13.5649 6.17287 13.4157 6.13862 13.2897 6.05916C12.7909 5.74398 12.2421 5.51606 11.6668 5.38519C11.5217 5.35215 11.3921 5.27075 11.2993 5.15437C11.2066 5.03799 11.1561 4.89352 11.1562 4.74469V3.9375H9.84375V4.74469C9.84389 4.89352 9.79344 5.03799 9.70066 5.15437C9.60789 5.27075 9.47831 5.35215 9.33319 5.38519C8.75787 5.51606 8.20906 5.74398 7.71028 6.05916C7.58433 6.13862 7.43509 6.17287 7.28709 6.15629C7.13909 6.13972 7.00113 6.07329 6.89588 5.96794L6.32362 5.39569L5.39569 6.32362L5.96794 6.89588C6.07329 7.00113 6.13972 7.13909 6.15629 7.28709C6.17287 7.43509 6.13862 7.58433 6.05916 7.71028C5.74398 8.20906 5.51606 8.75787 5.38519 9.33319C5.35215 9.47831 5.27075 9.60789 5.15437 9.70066C5.03799 9.79344 4.89352 9.84389 4.74469 9.84375H3.9375V11.1562H4.74469C4.89352 11.1561 5.03799 11.2066 5.15437 11.2993C5.27075 11.3921 5.35215 11.5217 5.38519 11.6668C5.51606 12.2421 5.74398 12.7909 6.05916 13.2897C6.13862 13.4157 6.17287 13.5649 6.15629 13.7129C6.13972 13.8609 6.07329 13.9989 5.96794 14.1041L5.39569 14.6764L6.32362 15.6043L6.89588 15.0321C7.00113 14.9267 7.13909 14.8603 7.28709 14.8437C7.43509 14.8271 7.58433 14.8614 7.71028 14.9408C8.20906 15.256 8.75787 15.4839 9.33319 15.6148C9.47831 15.6479 9.60789 15.7292 9.70066 15.8456C9.79344 15.962 9.84389 16.1065 9.84375 16.2553V17.0625Z" fill="#4E585F"/>
<path d="M10.5 13.7813C9.85103 13.7813 9.21664 13.5888 8.67704 13.2283C8.13744 12.8677 7.71687 12.3553 7.46852 11.7557C7.22017 11.1561 7.15519 10.4964 7.2818 9.85986C7.40841 9.22336 7.72092 8.6387 8.17981 8.17981C8.6387 7.72092 9.22336 7.40841 9.85986 7.2818C10.4964 7.15519 11.1561 7.22017 11.7557 7.46852C12.3553 7.71687 12.8677 8.13744 13.2283 8.67704C13.5888 9.21664 13.7813 9.85103 13.7813 10.5C13.7802 11.3699 13.4342 12.2039 12.819 12.819C12.2039 13.4342 11.3699 13.7802 10.5 13.7813ZM10.5 8.53125C10.1106 8.53125 9.72998 8.64672 9.40622 8.86305C9.08246 9.07938 8.83012 9.38685 8.68111 9.74659C8.5321 10.1063 8.49312 10.5022 8.56908 10.8841C8.64505 11.266 8.83255 11.6168 9.10789 11.8921C9.38322 12.1675 9.73402 12.355 10.1159 12.4309C10.4978 12.5069 10.8937 12.4679 11.2534 12.3189C11.6132 12.1699 11.9206 11.9175 12.137 11.5938C12.3533 11.27 12.4688 10.8894 12.4688 10.5C12.4688 9.97786 12.2613 9.4771 11.8921 9.10789C11.5229 8.73867 11.0221 8.53125 10.5 8.53125Z" fill="#4E585F"/>
<path d="M11.1562 26.9062H9.84375V24.2812C9.84375 24.1072 9.91289 23.9403 10.036 23.8172C10.159 23.6941 10.326 23.625 10.5 23.625H11.4621C11.5775 23.2585 11.7251 22.903 11.9031 22.5625L11.2219 21.8813C11.0988 21.7583 11.0297 21.5914 11.0297 21.4174C11.0297 21.2434 11.0988 21.0765 11.2219 20.9534L13.0784 19.0969C13.2015 18.9738 13.3684 18.9047 13.5424 18.9047C13.7164 18.9047 13.8833 18.9738 14.0063 19.0969L14.6875 19.7774C15.028 19.5996 15.3836 19.4523 15.75 19.3371V18.375C15.75 18.201 15.8191 18.034 15.9422 17.911C16.0653 17.7879 16.2322 17.7188 16.4062 17.7188H19.0312V19.0312H17.0625V19.8384C17.0626 19.9873 17.0122 20.1317 16.9194 20.2481C16.8266 20.3645 16.6971 20.4459 16.5519 20.4789C15.9766 20.6098 15.4278 20.8377 14.929 21.1529C14.8031 21.2324 14.6538 21.2666 14.5058 21.25C14.3578 21.2335 14.2199 21.167 14.1146 21.0617L13.5424 20.4894L12.6144 21.4174L13.1867 21.9896C13.292 22.0949 13.3585 22.2328 13.375 22.3808C13.3916 22.5288 13.3574 22.6781 13.2779 22.804C12.9627 23.3028 12.7348 23.8516 12.6039 24.4269C12.5709 24.5721 12.4895 24.7016 12.3731 24.7944C12.2567 24.8872 12.1123 24.9376 11.9634 24.9375H11.1562V26.9062Z" fill="#4E585F"/>
<path d="M15.75 25.5938H14.4375C14.4385 24.7238 14.7846 23.8898 15.3997 23.2747C16.0148 22.6596 16.8488 22.3135 17.7188 22.3125V23.625C17.1966 23.625 16.6958 23.8324 16.3266 24.2016C15.9574 24.5708 15.75 25.0716 15.75 25.5938Z" fill="#4E585F"/>
<path d="M29.5313 32.8125C28.1035 32.8125 26.7078 32.3891 25.5207 31.5959C24.3336 30.8027 23.4084 29.6753 22.862 28.3562C22.3156 27.0372 22.1727 25.5857 22.4512 24.1854C22.7297 22.7851 23.4173 21.4989 24.4268 20.4893C25.4364 19.4798 26.7226 18.7922 28.1229 18.5137C29.5232 18.2352 30.9747 18.3781 32.2938 18.9245C33.6128 19.4709 34.7402 20.3961 35.5334 21.5832C36.3266 22.7703 36.75 24.166 36.75 25.5938C36.7477 27.5076 35.9865 29.3424 34.6332 30.6957C33.2799 32.049 31.4451 32.8102 29.5313 32.8125ZM29.5313 19.6875C28.3631 19.6875 27.2212 20.0339 26.2499 20.6829C25.2786 21.3319 24.5216 22.2543 24.0746 23.3335C23.6276 24.4128 23.5106 25.6003 23.7385 26.746C23.9664 27.8917 24.5289 28.9441 25.3549 29.7701C26.1809 30.5961 27.2333 31.1586 28.379 31.3865C29.5247 31.6144 30.7122 31.4974 31.7915 31.0504C32.8707 30.6034 33.7931 29.8464 34.4421 28.8751C35.0911 27.9038 35.4375 26.7619 35.4375 25.5938C35.4356 24.0279 34.8127 22.5267 33.7055 21.4195C32.5983 20.3123 31.0971 19.6894 29.5313 19.6875Z" fill="#4E585F"/>
<path d="M28.2188 30.1874C28.0447 30.1873 27.8778 30.1182 27.7548 29.9951L24.4736 26.7138C24.3505 26.5908 24.2814 26.4239 24.2814 26.2499C24.2814 26.0758 24.3505 25.909 24.4736 25.7859L26.4423 23.8171C26.5654 23.6941 26.7323 23.625 26.9063 23.625C27.0803 23.625 27.2472 23.6941 27.3702 23.8171L28.2188 24.6657L31.6923 21.1921C31.8154 21.0691 31.9823 21 32.1563 21C32.3303 21 32.4972 21.0691 32.6202 21.1921L34.589 23.1609C34.712 23.284 34.7811 23.4508 34.7811 23.6249C34.7811 23.7989 34.712 23.9658 34.589 24.0888L28.6827 29.9951C28.5597 30.1182 28.3928 30.1873 28.2188 30.1874ZM25.8655 26.2499L28.2188 28.6032L33.1971 23.6249L32.1563 22.584L28.6827 26.0576C28.5597 26.1806 28.3928 26.2497 28.2188 26.2497C28.0448 26.2497 27.8779 26.1806 27.7548 26.0576L26.9063 25.209L25.8655 26.2499Z" fill="#4E585F"/>
<path d="M38.7188 2.625H37.4062V3.9375H38.7188V2.625Z" fill="#4E585F"/>
<path d="M36.0938 2.625H27.5625V3.9375H36.0938V2.625Z" fill="#4E585F"/>
</g>
</svg>
