<?xml version="1.0" encoding="utf-8"?>
<!-- Generator: Adobe Illustrator 28.3.0, SVG Export Plug-In . SVG Version: 6.00 Build 0)  -->
<svg version="1.1" id="Layer_1" xmlns="http://www.w3.org/2000/svg" xmlns:xlink="http://www.w3.org/1999/xlink" x="0px" y="0px"
	 viewBox="0 0 80 24" style="enable-background:new 0 0 80 24;" xml:space="preserve">
<style type="text/css">
	.st0{fill:#11254A;}
	.st1{fill:#F15622;}
	.st2{fill:#696B8E;}
</style>
<g>
	<g>
		<path class="st0" d="M39.4,13.1c-0.1-0.1-0.2-0.3-0.2-0.5V8.3h2V5.3h-2V2h-3.4c-0.2,0,0,0-0.3,0l0,3.3h-2v2.9h1.9v4.9
			c0,1,0.3,1.8,0.9,2.4c0.6,0.6,1.4,0.9,2.4,0.9c1.3,0,2.7-0.1,4.1-0.2c0,0,0,0,0,0v-2.8H40C39.8,13.3,39.6,13.3,39.4,13.1z"/>
		<path class="st0" d="M26.1,4.4c-3.3,0-6,2.7-6,6c0,3.3,2.7,6,6,6c3.3,0,6-2.7,6-6C32.1,7,29.4,4.4,26.1,4.4z M26.1,13.3
			c-1.6,0-2.9-1.3-2.9-2.9c0-1.6,1.3-2.9,2.9-2.9c1.6,0,2.9,1.3,2.9,2.9C29,12,27.7,13.3,26.1,13.3z"/>
		<path class="st0" d="M57.4,4.4c-3.3,0-6,2.7-6,6c0,3.3,2.7,6,6,6c3.3,0,6-2.7,6-6C63.4,7.1,60.7,4.4,57.4,4.4z M57.4,13.3
			c-1.6,0-2.9-1.3-2.9-2.9c0-1.6,1.3-2.9,2.9-2.9c1.6,0,2.9,1.3,2.9,2.9C60.3,12,59,13.3,57.4,13.3z"/>
		<g>
			<polygon class="st1" points="47.5,1.6 49.3,3.9 47.5,3.9 45.7,3.9 			"/>
			<polygon class="st0" points="45.7,8.2 45.7,16.4 49.3,16.4 49.3,5.3 45.7,5.3 			"/>
		</g>
		<path class="st0" d="M76,6c-0.6-0.6-1.3-0.9-2.3-0.9h-0.9c-0.5,0-1.1,0.1-1.7,0.3c-0.7,0.2-1.4,0.5-2,0.9l-0.2-1h-3.2v11.1h3.6
			V8.6c0.9-0.3,1.8-0.4,2.5-0.4h0.7c0.2,0,0.4,0.1,0.5,0.2c0.1,0.1,0.2,0.3,0.2,0.5v7.5h3.6V8.3C76.8,7.3,76.6,6.6,76,6z"/>
		<path class="st0" d="M17.9,2c-0.2,0-0.1,0-0.2,0h-2h-0.1h-0.2v0.3c0,0,0,0,0,0v8.2L6.1,2H3.6c-0.1,0,0,0-0.2,0v11.5h0v2.7l0,0H4
			h1.7H6v-0.3v-1.9V7.7l9.2,8.5h2.8V6.3h0V2z"/>
	</g>
	<g>
		<path class="st2" d="M3.8,18.5c0.6,0,0.9,0.1,1.2,0.3c0.2,0.2,0.3,0.4,0.3,0.7c0,0.1,0,0.3-0.1,0.4c-0.1,0.1-0.2,0.2-0.3,0.3
			c0.1,0,0.3,0.1,0.6,0.3c0.2,0.2,0.3,0.5,0.3,0.7c0,0.3-0.1,0.5-0.3,0.7c-0.3,0.3-0.9,0.4-1.2,0.4H3.2v-3.7H3.8z M3.8,20.1H4
			c0.2,0,0.4,0,0.5-0.1c0.1-0.1,0.2-0.3,0.2-0.4c0-0.1,0-0.2-0.2-0.4c-0.1-0.1-0.3-0.1-0.5-0.1H3.8V20.1z M3.8,21.7h0.4
			c0.2,0,0.5,0,0.7-0.1c0.1-0.1,0.2-0.2,0.2-0.4c0-0.2-0.1-0.3-0.2-0.4c-0.2-0.2-0.4-0.2-0.7-0.2H3.8V21.7z"/>
		<path class="st2" d="M7.4,19.9v1.4c0,0.1,0,0.3,0.1,0.4c0.1,0.1,0.2,0.2,0.4,0.2s0.3-0.1,0.4-0.2c0.1-0.1,0.1-0.3,0.1-0.4v-1.4
			h0.6v1.4c0,0.3,0,0.6-0.3,0.8c-0.2,0.2-0.6,0.3-0.9,0.3c-0.3,0-0.6-0.1-0.9-0.3c-0.3-0.2-0.3-0.5-0.3-0.8v-1.4H7.4z"/>
		<path class="st2" d="M11.4,20.5c-0.1-0.1-0.2-0.2-0.4-0.2c-0.1,0-0.2,0-0.2,0.1c0,0-0.1,0.1-0.1,0.1c0,0.1,0,0.1,0.1,0.1
			c0,0,0.1,0,0.2,0.1l0.3,0.1c0.1,0.1,0.3,0.1,0.4,0.2c0.1,0.1,0.2,0.3,0.2,0.4c0,0.2-0.1,0.4-0.2,0.5c-0.2,0.2-0.5,0.3-0.8,0.3
			c-0.2,0-0.4,0-0.6-0.2c-0.2-0.1-0.3-0.3-0.3-0.4l0.5-0.2c0,0.1,0.1,0.2,0.1,0.2c0,0,0.1,0.1,0.3,0.1c0.1,0,0.2,0,0.3-0.1
			c0.1,0,0.1-0.1,0.1-0.2s0-0.1-0.1-0.2c-0.1-0.1-0.2-0.1-0.3-0.1l-0.2-0.1c-0.1-0.1-0.3-0.1-0.4-0.2c-0.1-0.1-0.2-0.2-0.2-0.4
			c0-0.2,0.1-0.4,0.2-0.5c0.1-0.1,0.3-0.2,0.7-0.2c0.2,0,0.3,0,0.5,0.1c0.1,0.1,0.2,0.1,0.3,0.3L11.4,20.5z"/>
		<path class="st2" d="M13.3,18.6c0.2,0,0.4,0.2,0.4,0.4c0,0.2-0.2,0.4-0.4,0.4c-0.2,0-0.4-0.2-0.4-0.4C12.9,18.7,13,18.6,13.3,18.6
			z M13.6,19.9v2.4h-0.6v-2.4H13.6z"/>
		<path class="st2" d="M14.7,19.9h0.6v0.2c0.3-0.3,0.6-0.3,0.7-0.3c0.5,0,0.7,0.2,0.8,0.3c0.1,0.1,0.2,0.3,0.2,0.7v1.4h-0.6V21
			c0-0.6-0.3-0.6-0.5-0.6c-0.3,0-0.6,0-0.6,0.8v1.1h-0.6V19.9z"/>
		<path class="st2" d="M20.7,21.7c-0.1,0.2-0.3,0.3-0.5,0.4c-0.2,0.1-0.5,0.2-0.8,0.2c-0.4,0-0.7-0.1-0.9-0.3
			c-0.3-0.2-0.4-0.6-0.4-0.9c0-0.4,0.1-0.7,0.4-1c0.2-0.2,0.5-0.3,0.9-0.3c0.4,0,0.7,0.2,0.9,0.3c0.3,0.3,0.4,0.8,0.4,1v0.1h-1.9
			c0,0.2,0.1,0.4,0.2,0.5c0.1,0.1,0.3,0.2,0.5,0.2c0.2,0,0.3,0,0.4-0.1c0.1-0.1,0.2-0.2,0.3-0.3L20.7,21.7z M20,20.8
			c0-0.1-0.1-0.2-0.2-0.3c-0.1-0.1-0.2-0.1-0.4-0.1c-0.2,0-0.4,0.1-0.4,0.2c-0.1,0.1-0.2,0.2-0.2,0.3H20z"/>
		<path class="st2" d="M22.9,20.5c-0.1-0.1-0.2-0.2-0.4-0.2c-0.1,0-0.2,0-0.2,0.1c0,0-0.1,0.1-0.1,0.1c0,0.1,0,0.1,0.1,0.1
			c0,0,0.1,0,0.2,0.1l0.3,0.1c0.1,0.1,0.3,0.1,0.4,0.2c0.1,0.1,0.2,0.3,0.2,0.4c0,0.2-0.1,0.4-0.2,0.5c-0.2,0.2-0.5,0.3-0.8,0.3
			c-0.2,0-0.4,0-0.6-0.2c-0.2-0.1-0.3-0.3-0.3-0.4l0.5-0.2c0,0.1,0.1,0.2,0.1,0.2c0,0,0.1,0.1,0.3,0.1c0.1,0,0.2,0,0.3-0.1
			c0.1,0,0.1-0.1,0.1-0.2s0-0.1-0.1-0.2c-0.1-0.1-0.2-0.1-0.3-0.1l-0.2-0.1c-0.1-0.1-0.3-0.1-0.4-0.2c-0.1-0.1-0.2-0.2-0.2-0.4
			c0-0.2,0.1-0.4,0.2-0.5c0.1-0.1,0.3-0.2,0.7-0.2c0.2,0,0.3,0,0.5,0.1c0.1,0.1,0.2,0.1,0.3,0.3L22.9,20.5z"/>
		<path class="st2" d="M25.6,20.5c-0.1-0.1-0.2-0.2-0.4-0.2c-0.1,0-0.2,0-0.2,0.1c0,0-0.1,0.1-0.1,0.1c0,0.1,0,0.1,0.1,0.1
			c0,0,0.1,0,0.2,0.1l0.3,0.1c0.1,0.1,0.3,0.1,0.4,0.2c0.1,0.1,0.2,0.3,0.2,0.4c0,0.2-0.1,0.4-0.2,0.5c-0.2,0.2-0.5,0.3-0.8,0.3
			c-0.2,0-0.4,0-0.6-0.2c-0.2-0.1-0.3-0.3-0.3-0.4l0.5-0.2c0,0.1,0.1,0.2,0.1,0.2c0,0,0.1,0.1,0.3,0.1c0.1,0,0.2,0,0.3-0.1
			c0.1,0,0.1-0.1,0.1-0.2s0-0.1-0.1-0.2c-0.1-0.1-0.2-0.1-0.3-0.1l-0.2-0.1c-0.1-0.1-0.3-0.1-0.4-0.2c-0.1-0.1-0.2-0.2-0.2-0.4
			c0-0.2,0.1-0.4,0.2-0.5c0.1-0.1,0.3-0.2,0.7-0.2c0.2,0,0.3,0,0.5,0.1c0.1,0.1,0.2,0.1,0.3,0.3L25.6,20.5z"/>
		<path class="st2" d="M30.9,19.4c0-0.1-0.1-0.2-0.2-0.2C30.6,19,30.4,19,30.2,19c-0.4,0-0.6,0.2-0.6,0.4c0,0.1,0,0.3,0.5,0.5
			l0.4,0.2c0.8,0.3,1,0.7,1,1.1c0,0.7-0.6,1.2-1.4,1.2c-0.5,0-0.8-0.2-1-0.4c-0.2-0.2-0.3-0.5-0.4-0.7l0.7-0.1
			c0,0.2,0.1,0.4,0.2,0.5c0.1,0.1,0.3,0.2,0.6,0.2c0.4,0,0.7-0.3,0.7-0.6c0-0.4-0.3-0.5-0.6-0.6l-0.4-0.2C29.5,20.3,29,20,29,19.5
			c0-0.5,0.5-1,1.3-1c0.5,0,0.7,0.2,0.9,0.3c0.1,0.1,0.2,0.2,0.3,0.4L30.9,19.4z"/>
		<path class="st2" d="M35.4,21.1c0,0.7-0.6,1.3-1.4,1.3s-1.4-0.5-1.4-1.3c0-0.7,0.6-1.2,1.4-1.2S35.4,20.4,35.4,21.1z M34.7,21.1
			c0-0.5-0.4-0.8-0.8-0.8s-0.8,0.2-0.8,0.8c0,0.5,0.3,0.8,0.8,0.8S34.7,21.6,34.7,21.1z"/>
		<path class="st2" d="M37,18.2v4.1h-0.6v-4.1H37z"/>
		<path class="st2" d="M38.8,19.9v1.4c0,0.1,0,0.3,0.1,0.4c0.1,0.1,0.2,0.2,0.4,0.2s0.3-0.1,0.4-0.2c0.1-0.1,0.1-0.3,0.1-0.4v-1.4
			h0.6v1.4c0,0.3,0,0.6-0.3,0.8c-0.2,0.2-0.6,0.3-0.9,0.3c-0.3,0-0.6-0.1-0.9-0.3c-0.3-0.2-0.3-0.5-0.3-0.8v-1.4H38.8z"/>
		<path class="st2" d="M42.3,20.4v1.9h-0.6v-1.9h-0.3v-0.5h0.3V19h0.6v0.9h0.5v0.5H42.3z"/>
		<path class="st2" d="M43.9,18.6c0.2,0,0.4,0.2,0.4,0.4c0,0.2-0.2,0.4-0.4,0.4c-0.2,0-0.4-0.2-0.4-0.4
			C43.5,18.7,43.6,18.6,43.9,18.6z M44.2,19.9v2.4h-0.6v-2.4H44.2z"/>
		<path class="st2" d="M48.1,21.1c0,0.7-0.6,1.3-1.4,1.3s-1.4-0.5-1.4-1.3c0-0.7,0.6-1.2,1.4-1.2S48.1,20.4,48.1,21.1z M47.5,21.1
			c0-0.5-0.4-0.8-0.8-0.8c-0.4,0-0.8,0.2-0.8,0.8c0,0.5,0.3,0.8,0.8,0.8S47.5,21.6,47.5,21.1z"/>
		<path class="st2" d="M49.1,19.9h0.6v0.2c0.3-0.3,0.6-0.3,0.7-0.3c0.5,0,0.7,0.2,0.8,0.3c0.1,0.1,0.2,0.3,0.2,0.7v1.4h-0.6V21
			c0-0.6-0.3-0.6-0.5-0.6c-0.3,0-0.6,0-0.6,0.8v1.1h-0.6V19.9z"/>
		<path class="st2" d="M53.8,20.5c-0.1-0.1-0.2-0.2-0.4-0.2c-0.1,0-0.2,0-0.2,0.1c0,0-0.1,0.1-0.1,0.1c0,0.1,0,0.1,0.1,0.1
			c0,0,0.1,0,0.2,0.1l0.3,0.1c0.1,0.1,0.3,0.1,0.4,0.2c0.1,0.1,0.2,0.3,0.2,0.4c0,0.2-0.1,0.4-0.2,0.5c-0.2,0.2-0.5,0.3-0.8,0.3
			c-0.2,0-0.4,0-0.6-0.2c-0.2-0.1-0.3-0.3-0.3-0.4l0.5-0.2c0,0.1,0.1,0.2,0.1,0.2c0,0,0.1,0.1,0.3,0.1c0.1,0,0.2,0,0.3-0.1
			c0.1,0,0.1-0.1,0.1-0.2s0-0.1-0.1-0.2c-0.1-0.1-0.2-0.1-0.3-0.1l-0.2-0.1c-0.1-0.1-0.3-0.1-0.4-0.2c-0.1-0.1-0.2-0.2-0.2-0.4
			c0-0.2,0.1-0.4,0.2-0.5c0.1-0.1,0.3-0.2,0.7-0.2c0.2,0,0.3,0,0.5,0.1c0.1,0.1,0.2,0.1,0.3,0.3L53.8,20.5z"/>
		<path class="st2" d="M57.9,18.5c0.3,0,0.6,0,0.9,0.2c0.4,0.2,0.5,0.6,0.5,0.9c0,0.2-0.1,0.6-0.4,0.8c-0.3,0.3-0.7,0.3-1,0.3h-0.3
			v1.5H57v-3.7H57.9z M57.6,20.2h0.3c0.6,0,0.8-0.2,0.8-0.6c0-0.2-0.1-0.6-0.8-0.6h-0.3V20.2z"/>
		<path class="st2" d="M60.7,19.9l0.7,1.3l0.7-1.3h0.7l-1.4,2.5L60,19.9H60.7z"/>
		<path class="st2" d="M64.3,20.4v1.9h-0.6v-1.9h-0.3v-0.5h0.3V19h0.6v0.9h0.5v0.5H64.3z"/>
		<path class="st2" d="M65.9,21.6c0.2,0,0.4,0.2,0.4,0.4c0,0.2-0.2,0.4-0.4,0.4c-0.2,0-0.4-0.2-0.4-0.4
			C65.5,21.8,65.7,21.6,65.9,21.6z"/>
		<path class="st2" d="M68.9,18.5v3.2h1.3v0.5h-1.9v-3.7H68.9z"/>
		<path class="st2" d="M71.6,20.4v1.9H71v-1.9h-0.3v-0.5H71V19h0.6v0.9h0.5v0.5H71.6z"/>
		<path class="st2" d="M74.9,18.2h0.6v4.1h-0.6V22c-0.3,0.3-0.6,0.3-0.8,0.3c-0.8,0-1.3-0.6-1.3-1.3c0-0.8,0.6-1.2,1.3-1.2
			c0.2,0,0.5,0,0.8,0.3V18.2z M73.4,21.1c0,0.4,0.3,0.8,0.8,0.8c0.4,0,0.8-0.3,0.8-0.7c0-0.5-0.4-0.8-0.8-0.8
			C73.7,20.3,73.4,20.7,73.4,21.1z"/>
		<path class="st2" d="M76.3,21.5c0.2,0,0.4,0.2,0.4,0.4s-0.2,0.4-0.4,0.4c-0.2,0-0.4-0.2-0.4-0.4S76.1,21.5,76.3,21.5z"/>
	</g>
</g>
</svg>
