<svg width="42" height="42" viewBox="0 0 42 42" fill="none" xmlns="http://www.w3.org/2000/svg">
<path id="Union" fill-rule="evenodd" clip-rule="evenodd" d="M32.5161 20.3226H35.2258C38.9611 20.3226 42 23.3615 42 27.0968C42 30.8321 38.9611 33.871 35.2258 33.871H32.3793C31.75 36.9593 29.0132 39.2903 25.7419 39.2903H17.0798L15.4303 40.9398L14.0273 39.5369C13.7293 39.2388 13.3872 39.3486 13.2889 39.3899C13.1907 39.4305 12.871 39.5958 12.871 40.0158V42H7.45161V40.0158C7.45161 39.5958 7.13187 39.4305 7.03364 39.3899C6.93474 39.3493 6.59197 39.2402 6.29526 39.5369L4.89232 40.9398L1.06016 37.1077L2.4631 35.7047C2.76048 35.4074 2.65074 35.0646 2.6101 34.9664C2.56945 34.8688 2.40416 34.5484 1.98416 34.5484H0V29.129H1.98416C2.40416 29.129 2.56945 28.8093 2.6101 28.7111C2.65074 28.6128 2.75981 28.2694 2.4631 27.9727L1.06016 26.5697L4.89232 22.7376L6.29526 24.1405C6.59265 24.4379 6.93474 24.3282 7.03364 24.2875C7.13187 24.2469 7.45161 24.0816 7.45161 23.6616V21.6774H9.48387V16.2581C9.48387 15.5109 10.0915 14.9032 10.8387 14.9032H12.1935V8.50432C12.1935 8.13648 12.2938 7.77474 12.4835 7.45906L16.9355 0.0379355L20.3226 5.68355V1.35484C20.3226 0.607645 20.9302 0 21.6774 0H28.4516C29.1988 0 29.8064 0.607645 29.8064 1.35484V14.9032H31.1613C31.9085 14.9032 32.5161 15.5109 32.5161 16.2581V20.3226ZM35.2258 24.3871H32.5161V29.8064H35.2258C36.7202 29.8064 37.9355 28.5912 37.9355 27.0968C37.9355 25.6024 36.7202 24.3871 35.2258 24.3871ZM28.4516 1.35484H21.6774V8.50432V8.80645V14.9032H28.4516V12.1935H25.7419V10.8387H28.4516V9.48387H24.3871V8.12903H28.4516V6.77419H25.7419V5.41935H28.4516V4.06452H24.3871V2.70968H28.4516V1.35484ZM13.6608 8.12903H20.2101L18.5843 5.41935H15.2866L13.6608 8.12903ZM17.6129 14.9032V9.48387H16.2581V14.9032H17.6129ZM20.3226 9.48387H18.9677V14.9032H20.3226V9.48387ZM16.1002 4.06452H17.7714L16.9355 2.67174L16.1002 4.06452ZM14.9032 9.48387H13.5484V14.9032H14.9032V9.48387ZM31.1613 18.9677V16.2581H10.8387V18.9677H31.1613ZM12.7707 38.1387C13.5436 37.8176 14.3931 37.9863 14.9852 38.579L15.4296 39.0241L17.346 37.1077L16.9009 36.6626C16.3089 36.0705 16.1402 35.2217 16.4606 34.4481C16.781 33.6738 17.5005 33.1935 18.3384 33.1935H18.9677V30.4839H18.3384C17.5005 30.4839 16.781 30.0036 16.4613 29.2293C16.1402 28.4557 16.3089 27.6069 16.9016 27.0148L17.3467 26.5697L15.4303 24.6533L14.9852 25.0984C14.3938 25.6911 13.545 25.8605 12.7707 25.5387C11.9964 25.2183 11.5161 24.4989 11.5161 23.6616V23.0323H8.80645V23.6616C8.80645 24.4995 8.32616 25.219 7.55187 25.5387C6.77894 25.8605 5.92945 25.6911 5.33739 25.0984L4.89232 24.6533L2.9759 26.5697L3.42097 27.0148C4.01303 27.6069 4.18171 28.4557 3.86129 29.2293C3.54087 30.0036 2.82145 30.4839 1.98416 30.4839H1.35484V33.1935H1.98416C2.82213 33.1935 3.54155 33.6738 3.86129 34.4481C4.18239 35.2217 4.01371 36.0705 3.42097 36.6626L2.9759 37.1077L4.89232 39.0241L5.33739 38.579C5.92945 37.987 6.77894 37.819 7.55187 38.1387C8.32616 38.4591 8.80645 39.1785 8.80645 40.0158V40.6452H11.5161V40.0158C11.5161 39.1779 11.9964 38.4585 12.7707 38.1387ZM18.4346 37.9355H25.7419C28.73 37.9355 31.1613 35.5042 31.1613 32.5161V20.3226H10.8387V21.6774H12.871V23.6616C12.871 24.0816 13.1907 24.2469 13.2889 24.2875C13.3872 24.3282 13.7299 24.4379 14.0273 24.1405L15.4303 22.7376L19.2624 26.5697L17.8595 27.9727C17.5621 28.2701 17.6718 28.6128 17.7125 28.7111C17.7531 28.8093 17.9184 29.129 18.3384 29.129H20.3226V34.5484H18.3384C17.9184 34.5484 17.7531 34.8688 17.7125 34.9664C17.6718 35.0646 17.5628 35.408 17.8595 35.7047L19.2624 37.1077L18.4346 37.9355ZM32.5161 32.5161H35.2258C38.2139 32.5161 40.6452 30.0849 40.6452 27.0968C40.6452 24.1087 38.2139 21.6774 35.2258 21.6774H32.5161V23.0323H35.2258C37.4674 23.0323 39.2903 24.8552 39.2903 27.0968C39.2903 29.3384 37.4674 31.1613 35.2258 31.1613H32.5161V32.5161ZM10.1557 25.7412C6.79439 25.7412 4.05897 28.4767 4.05897 31.838C4.05897 35.1994 6.79439 37.9348 10.1557 37.9348C13.5171 37.9348 16.2525 35.1994 16.2525 31.838C16.2525 28.4767 13.5171 25.7412 10.1557 25.7412ZM10.1557 36.58C7.5409 36.58 5.41381 34.4529 5.41381 31.838C5.41381 29.2232 7.5409 27.0961 10.1557 27.0961C12.7706 27.0961 14.8977 29.2232 14.8977 31.838C14.8977 34.4529 12.7706 36.58 10.1557 36.58ZM10.1602 28.4506C8.29255 28.4506 6.7731 29.9701 6.7731 31.8377C6.7731 33.7054 8.29255 35.2248 10.1602 35.2248C12.0278 35.2248 13.5473 33.7054 13.5473 31.8377C13.5473 29.9701 12.0278 28.4506 10.1602 28.4506ZM10.1602 33.87C9.03974 33.87 8.12794 32.9582 8.12794 31.8377C8.12794 30.7173 9.03974 29.8055 10.1602 29.8055C11.2806 29.8055 12.1925 30.7173 12.1925 31.8377C12.1925 32.9582 11.2806 33.87 10.1602 33.87ZM36.5817 5.41961H37.9366V4.06477H39.2914V2.70993H37.9366V1.35509H36.5817V2.70993H35.2269V4.06477H36.5817V5.41961ZM37.9366 12.1943H36.5817V10.8394H35.2269V9.48461H36.5817V8.12977H37.9366V9.48461H39.2914V10.8394H37.9366V12.1943ZM36.5817 18.9698H37.9366V17.6149H39.2914V16.2601H37.9366V14.9052H36.5817V16.2601H35.2269V17.6149H36.5817V18.9698ZM5.41986 8.12861H4.06502V6.77377H2.71019V5.41894H4.06502V4.0641H5.41986V5.41894H6.7747V6.77377H5.41986V8.12861ZM4.06502 14.9037H5.41986V13.5488H6.7747V12.194H5.41986V10.8392H4.06502V12.194H2.71019V13.5488H4.06502V14.9037ZM5.41986 21.6784H4.06502V20.3235H2.71019V18.9687H4.06502V17.6138H5.41986V18.9687H6.7747V20.3235H5.41986V21.6784Z" fill="#4E585F"/>
</svg>
