<svg width="30" height="16" viewBox="0 0 30 16" fill="none" xmlns="http://www.w3.org/2000/svg">
<path id="Vector" d="M29.959 7.7269C29.9225 7.54038 29.8359 7.38496 29.6992 7.26062L22.571 0.678087C22.1685 0.306431 21.5389 0.339568 21.1776 0.751415C20.8292 1.14867 20.861 1.75126 21.2492 2.10967L26.5405 6.99417H0.992506C0.44436 6.99417 0 7.43853 0 7.98668C0 8.53482 0.44436 8.97918 0.992506 8.97918H26.5405L21.2481 13.8765C20.8598 14.2358 20.8271 14.8384 21.1741 15.2377C21.5367 15.6548 22.1724 15.6894 22.5781 15.3141L29.6992 8.72606C29.8359 8.59284 29.9225 8.44186 29.959 8.27311C30.0137 8.0866 30.0137 7.90453 29.959 7.7269Z" fill="#121B23"/>
</svg>
