<svg width="43" height="44" viewBox="0 0 43 44" fill="none" xmlns="http://www.w3.org/2000/svg">
<path id="Vector" d="M40.3754 1.83143C39.6792 1.29577 38.8307 1.00402 37.9574 1H5.04261C3.97044 1 2.94219 1.43257 2.18405 2.20254C1.42592 2.97251 1 4.01681 1 5.10571V38.8943C1.00112 39.9828 1.42739 41.0265 2.18529 41.7962C2.94318 42.5659 3.97079 42.9989 5.04261 43H37.9574C39.0292 42.9989 40.0568 42.5659 40.8147 41.7962C41.5726 41.0265 41.9989 39.9828 42 38.8943V5.10571C41.9985 4.46923 41.8509 3.84187 41.5689 3.27347C41.2869 2.70508 40.8782 2.21132 40.3754 1.83143ZM3.26606 2.41429C3.7903 2.05283 4.40897 1.85881 5.04261 1.85714H37.9574C38.8057 1.85714 39.6193 2.1994 40.2192 2.80863C40.819 3.41785 41.156 4.24414 41.156 5.10571V9.23714H1.85663V5.10571C1.85611 4.57409 1.98441 4.05051 2.23021 3.58114C2.476 3.11177 2.83174 2.71104 3.26606 2.41429ZM37.9574 42.1429H5.04261C4.19462 42.1417 3.38168 41.7991 2.78206 41.1901C2.18244 40.5811 1.84509 39.7555 1.84397 38.8943V10.0943H41.1307V38.8943C41.1296 39.7511 40.7958 40.5728 40.2016 41.1811C39.6074 41.7893 38.801 42.135 37.9574 42.1429ZM5.8275 7.24C6.16224 7.23997 6.48941 7.13887 6.76742 6.94954C7.04544 6.7602 7.26176 6.49119 7.38887 6.1767C7.51598 5.8622 7.54815 5.51642 7.4813 5.18331C7.41444 4.8502 7.25157 4.5448 7.01339 4.30593C6.77521 4.06706 6.47248 3.9055 6.14368 3.8418C5.81487 3.77809 5.47484 3.81511 5.1668 3.94815C4.85876 4.0812 4.59663 4.30425 4.41372 4.58897C4.23081 4.87369 4.13538 5.20721 4.13956 5.54714C4.14511 5.99808 4.3254 6.42863 4.64135 6.7455C4.9573 7.06237 5.38346 7.24003 5.8275 7.24ZM5.8275 4.71143C5.99531 4.71148 6.15929 4.76234 6.2985 4.85751C6.43771 4.95267 6.54583 5.08782 6.60904 5.2457C6.67225 5.40357 6.68769 5.577 6.65338 5.74383C6.61906 5.91066 6.53656 6.06331 6.41641 6.18229C6.29626 6.30126 6.14391 6.38116 5.97884 6.41177C5.81376 6.44239 5.64344 6.42232 5.48964 6.35415C5.33584 6.28598 5.20555 6.17279 5.1154 6.02904C5.02525 5.88529 4.97934 5.71752 4.98353 5.54714C4.98904 5.32355 5.08038 5.111 5.23806 4.95486C5.39574 4.79872 5.60728 4.71136 5.8275 4.71143ZM10.022 7.24C10.3568 7.23997 10.6839 7.13887 10.9619 6.94954C11.24 6.7602 11.4563 6.49119 11.5834 6.1767C11.7105 5.8622 11.7427 5.51642 11.6758 5.18331C11.609 4.8502 11.4461 4.5448 11.2079 4.30593C10.9697 4.06706 10.667 3.9055 10.3382 3.8418C10.0094 3.77809 9.66936 3.81511 9.36133 3.94815C9.05329 4.0812 8.79115 4.30425 8.60824 4.58897C8.42533 4.87369 8.3299 5.20721 8.33409 5.54714C8.33964 5.99808 8.51992 6.42863 8.83587 6.7455C9.15182 7.06237 9.57799 7.24003 10.022 7.24ZM10.022 4.71143C10.1898 4.71148 10.3538 4.76234 10.493 4.85751C10.6322 4.95267 10.7404 5.08782 10.8036 5.2457C10.8668 5.40357 10.8822 5.577 10.8479 5.74383C10.8136 5.91066 10.7311 6.06331 10.6109 6.18229C10.4908 6.30126 10.3384 6.38116 10.1734 6.41177C10.0083 6.44239 9.83796 6.42232 9.68416 6.35415C9.53037 6.28598 9.40007 6.17279 9.30992 6.02904C9.21977 5.88529 9.17386 5.71752 9.17806 5.54714C9.18356 5.32355 9.27491 5.111 9.43259 4.95486C9.59027 4.79872 9.8018 4.71136 10.022 4.71143ZM14.4782 7.24C14.8129 7.23997 15.1401 7.13887 15.4181 6.94954C15.6961 6.7602 15.9124 6.49119 16.0395 6.1767C16.1667 5.8622 16.1988 5.51642 16.132 5.18331C16.0651 4.8502 15.9022 4.5448 15.6641 4.30593C15.4259 4.06706 15.1232 3.9055 14.7944 3.8418C14.4656 3.77809 14.1255 3.81511 13.8175 3.94815C13.5094 4.0812 13.2473 4.30425 13.0644 4.58897C12.8815 4.87369 12.7861 5.20721 12.7902 5.54714C12.7958 5.99808 12.9761 6.42863 13.292 6.7455C13.608 7.06237 14.0341 7.24003 14.4782 7.24ZM14.4782 4.71143C14.646 4.71148 14.81 4.76234 14.9492 4.85751C15.0884 4.95267 15.1965 5.08782 15.2597 5.2457C15.3229 5.40357 15.3384 5.577 15.3041 5.74383C15.2697 5.91066 15.1872 6.06331 15.0671 6.18229C14.9469 6.30126 14.7946 6.38116 14.6295 6.41177C14.4644 6.44239 14.2941 6.42232 14.1403 6.35415C13.9865 6.28598 13.8562 6.17279 13.7661 6.02904C13.6759 5.88529 13.63 5.71752 13.6342 5.54714C13.6397 5.32355 13.7311 5.111 13.8887 4.95486C14.0464 4.79872 14.258 4.71136 14.4782 4.71143ZM21.884 5.54714C21.884 5.43348 21.9285 5.32447 22.0076 5.2441C22.0867 5.16372 22.1941 5.11857 22.306 5.11857H38.0502C38.1621 5.11857 38.2695 5.16372 38.3486 5.2441C38.4278 5.32447 38.4722 5.43348 38.4722 5.54714C38.4722 5.66081 38.4278 5.76982 38.3486 5.85019C38.2695 5.93056 38.1621 5.97571 38.0502 5.97571H22.306C22.1941 5.97571 22.0867 5.93056 22.0076 5.85019C21.9285 5.76982 21.884 5.66081 21.884 5.54714ZM4.75988 13.4886C4.75988 13.3749 4.80434 13.2659 4.88348 13.1855C4.96261 13.1052 5.06995 13.06 5.18186 13.06H15.4867C15.5986 13.06 15.706 13.1052 15.7851 13.1855C15.8642 13.2659 15.9087 13.3749 15.9087 13.4886C15.9087 13.6022 15.8642 13.7112 15.7851 13.7916C15.706 13.872 15.5986 13.9171 15.4867 13.9171H5.18186C5.06995 13.9171 4.96261 13.872 4.88348 13.7916C4.80434 13.7112 4.75988 13.6022 4.75988 13.4886ZM12.1699 17.3457H11.115C11.003 17.3457 10.8957 17.3006 10.8166 17.2202C10.7374 17.1398 10.693 17.0308 10.693 16.9171C10.693 16.8035 10.7374 16.6945 10.8166 16.6141C10.8957 16.5337 11.003 16.4886 11.115 16.4886H12.1699C12.2818 16.4886 12.3892 16.5337 12.4683 16.6141C12.5475 16.6945 12.5919 16.8035 12.5919 16.9171C12.5919 17.0308 12.5475 17.1398 12.4683 17.2202C12.3892 17.3006 12.2818 17.3457 12.1699 17.3457ZM8.9544 17.3457H5.18186C5.06995 17.3457 4.96261 17.3006 4.88348 17.2202C4.80434 17.1398 4.75988 17.0308 4.75988 16.9171C4.75988 16.8035 4.80434 16.6945 4.88348 16.6141C4.96261 16.5337 5.06995 16.4886 5.18186 16.4886H8.9544C9.06632 16.4886 9.17366 16.5337 9.25279 16.6141C9.33193 16.6945 9.37639 16.8035 9.37639 16.9171C9.37639 17.0308 9.33193 17.1398 9.25279 17.2202C9.17366 17.3006 9.06632 17.3457 8.9544 17.3457ZM23.8631 29.6371L22.6267 29.2086C22.585 29.1949 22.5467 29.172 22.5146 29.1417C22.4826 29.1113 22.4574 29.0742 22.441 29.0329C22.4223 28.9927 22.4125 28.9488 22.4125 28.9043C22.4125 28.8598 22.4223 28.8159 22.441 28.7757L23.0234 27.5971C23.1321 27.3778 23.1698 27.1291 23.1312 26.8867C23.0925 26.6443 22.9795 26.4205 22.8082 26.2471L21.6561 25.0729C21.4848 24.9 21.2645 24.786 21.0261 24.7468C20.7877 24.7076 20.5432 24.7452 20.3269 24.8543L19.1622 25.45C19.1232 25.4687 19.0807 25.4788 19.0376 25.4797C18.9944 25.4806 18.9516 25.4723 18.9118 25.4554C18.872 25.4384 18.8362 25.4131 18.8066 25.3812C18.7771 25.3493 18.7544 25.3114 18.7402 25.27L18.3182 24.0143C18.2426 23.7818 18.0967 23.5796 17.9011 23.4364C17.7056 23.2933 17.4706 23.2165 17.2295 23.2171H15.5922C15.3512 23.2165 15.1161 23.2933 14.9206 23.4364C14.7251 23.5796 14.5791 23.7818 14.5035 24.0143L14.0815 25.27C14.0673 25.3114 14.0447 25.3493 14.0151 25.3812C13.9856 25.4131 13.9497 25.4384 13.91 25.4554C13.8702 25.4723 13.8273 25.4806 13.7842 25.4797C13.741 25.4788 13.6986 25.4687 13.6595 25.45L12.4949 24.8586C12.2793 24.7476 12.0347 24.7086 11.7961 24.7471C11.5574 24.7856 11.3367 24.8996 11.1656 25.0729L10.0136 26.2471C9.84227 26.4205 9.72922 26.6443 9.69057 26.8867C9.65193 27.1291 9.68966 27.3778 9.79837 27.5971L10.3807 28.7757C10.3974 28.8165 10.406 28.8602 10.406 28.9043C10.406 28.9484 10.3974 28.9921 10.3807 29.0329C10.3643 29.0742 10.3392 29.1113 10.3071 29.1417C10.275 29.172 10.2368 29.1949 10.195 29.2086L8.95862 29.6371C8.7301 29.7145 8.53133 29.8629 8.39046 30.0613C8.2496 30.2598 8.17377 30.4982 8.17373 30.7429V32.4057C8.17377 32.6504 8.2496 32.8888 8.39046 33.0872C8.53133 33.2857 8.7301 33.4341 8.95862 33.5114L10.195 33.94C10.237 33.9532 10.2756 33.9758 10.3077 34.0062C10.3399 34.0367 10.3648 34.0741 10.3807 34.1157C10.3995 34.1559 10.4092 34.1998 10.4092 34.2443C10.4092 34.2888 10.3995 34.3327 10.3807 34.3729L9.79837 35.5557C9.69 35.7744 9.65245 36.0223 9.6911 36.264C9.72975 36.5057 9.84262 36.7288 10.0136 36.9014L11.1656 38.0757C11.3363 38.2497 11.5567 38.3645 11.7954 38.4038C12.0341 38.443 12.2789 38.4047 12.4949 38.2943L13.6595 37.7029C13.6991 37.6838 13.7423 37.6739 13.7861 37.6739C13.8299 37.6739 13.8732 37.6838 13.9127 37.7029C13.9529 37.7202 13.9891 37.746 14.0189 37.7785C14.0487 37.811 14.0715 37.8494 14.0857 37.8914L14.5077 39.1471C14.586 39.3757 14.7325 39.5737 14.927 39.7135C15.1214 39.8534 15.354 39.9281 15.5922 39.9271H17.2253C17.4676 39.9323 17.7053 39.8591 17.904 39.7181C18.1028 39.5772 18.2522 39.3757 18.3309 39.1429L18.7529 37.8871C18.7671 37.8452 18.7899 37.8067 18.8197 37.7742C18.8495 37.7417 18.8857 37.716 18.9259 37.6986C18.9655 37.6795 19.0087 37.6696 19.0525 37.6696C19.0963 37.6696 19.1395 37.6795 19.1791 37.6986L20.3353 38.2857C20.5513 38.3961 20.7961 38.4344 21.0348 38.3952C21.2735 38.3559 21.4939 38.2411 21.6646 38.0671L22.8166 36.8929C22.9876 36.7202 23.1004 36.4971 23.1391 36.2554C23.1777 36.0138 23.1402 35.7659 23.0318 35.5471L22.4495 34.3643C22.4307 34.3241 22.421 34.2802 22.421 34.2357C22.421 34.1912 22.4307 34.1473 22.4495 34.1071C22.4645 34.065 22.4892 34.0271 22.5215 33.9966C22.5537 33.966 22.5927 33.9437 22.6351 33.9314L23.8715 33.5029C24.1001 33.4255 24.2988 33.2771 24.4397 33.0787C24.5806 32.8802 24.6564 32.6418 24.6564 32.3971V30.7429C24.6558 30.4972 24.5788 30.2579 24.4363 30.0594C24.2938 29.8608 24.0932 29.713 23.8631 29.6371ZM23.804 32.4057C23.8084 32.4715 23.7918 32.5369 23.7569 32.5924C23.722 32.6479 23.6705 32.6906 23.6099 32.7143L22.3693 33.1429C22.2132 33.1953 22.0702 33.2815 21.95 33.3954C21.8298 33.5093 21.7353 33.6483 21.673 33.8029C21.6104 33.9574 21.5811 34.1238 21.5869 34.2908C21.5927 34.4579 21.6336 34.6217 21.7068 34.7714L22.2891 35.9543C22.3181 36.0126 22.3284 36.0787 22.3186 36.1432C22.3088 36.2078 22.2793 36.2676 22.2343 36.3143L21.078 37.4629C21.0331 37.5088 20.9749 37.539 20.9119 37.549C20.8489 37.559 20.7844 37.5483 20.7278 37.5186L19.5631 36.9271C19.416 36.8522 19.2548 36.8102 19.0904 36.8041C18.9259 36.798 18.7621 36.8278 18.61 36.8917C18.4579 36.9555 18.3212 37.0518 18.2089 37.174C18.0967 37.2962 18.0116 37.4415 17.9596 37.6L17.5376 38.8557C17.5172 38.9179 17.4782 38.972 17.426 39.0105C17.3737 39.0489 17.3109 39.0697 17.2464 39.07H15.5922C15.5277 39.0697 15.4649 39.0489 15.4127 39.0105C15.3604 38.972 15.3214 38.9179 15.301 38.8557L14.8791 37.6C14.8266 37.4419 14.7415 37.297 14.6295 37.175C14.5174 37.0531 14.3809 36.9569 14.2292 36.8929C14.0955 36.8356 13.9523 36.8051 13.8072 36.8029C13.6285 36.8038 13.4524 36.8463 13.2924 36.9271L12.1277 37.5186C12.0713 37.549 12.0066 37.5601 11.9435 37.55C11.8803 37.54 11.8221 37.5094 11.7775 37.4629L10.6212 36.2886C10.5762 36.2419 10.5467 36.1821 10.5369 36.1175C10.5271 36.053 10.5374 35.9869 10.5664 35.9286L11.1487 34.7457C11.2219 34.596 11.2628 34.4322 11.2686 34.2651C11.2744 34.0981 11.245 33.9317 11.1825 33.7771C11.1202 33.6226 11.0257 33.4836 10.9055 33.3697C10.7853 33.2558 10.6423 33.1696 10.4862 33.1171L9.26245 32.7143C9.202 32.6943 9.14938 32.6553 9.11221 32.6029C9.07504 32.5505 9.05524 32.4874 9.05568 32.4229V30.7429C9.05588 30.6784 9.07593 30.6157 9.11301 30.5634C9.15009 30.5112 9.20235 30.472 9.26245 30.4514L10.4989 30.0229C10.6553 29.9704 10.7988 29.8844 10.9196 29.7706C11.0404 29.6568 11.1357 29.5179 11.1989 29.3634C11.2622 29.2089 11.292 29.0424 11.2862 28.8752C11.2805 28.7079 11.2393 28.5439 11.1656 28.3943L10.5833 27.2114C10.554 27.1539 10.5435 27.0884 10.5533 27.0244C10.5632 26.9605 10.5929 26.9014 10.6381 26.8557L11.7944 25.69C11.8392 25.6439 11.8971 25.6134 11.96 25.6026C12.0228 25.5918 12.0874 25.6014 12.1446 25.63L13.3093 26.2257C13.4566 26.3006 13.6181 26.3424 13.7828 26.3482C13.9474 26.354 14.1114 26.3238 14.2635 26.2596C14.4157 26.1953 14.5524 26.0986 14.6644 25.9759C14.7765 25.8532 14.8612 25.7075 14.9128 25.5486L15.3348 24.2929C15.3559 24.2315 15.3952 24.1783 15.4474 24.1406C15.4996 24.103 15.562 24.0828 15.626 24.0829H17.2591C17.3231 24.0828 17.3855 24.103 17.4377 24.1406C17.4898 24.1783 17.5292 24.2315 17.5502 24.2929L17.9722 25.5486C18.0239 25.7075 18.1086 25.8532 18.2206 25.9759C18.3326 26.0986 18.4694 26.1953 18.6215 26.2596C18.7736 26.3238 18.9376 26.354 19.1023 26.3482C19.2669 26.3424 19.4284 26.3006 19.5758 26.2257L20.7404 25.63C20.7976 25.6014 20.8622 25.5918 20.9251 25.6026C20.9879 25.6134 21.0459 25.6439 21.0907 25.69L22.2469 26.8643C22.2921 26.9099 22.3218 26.969 22.3317 27.033C22.3416 27.097 22.3311 27.1625 22.3018 27.22L21.7194 28.4029C21.6448 28.5498 21.6019 28.7111 21.5933 28.8761C21.5848 29.0412 21.611 29.2062 21.67 29.3602C21.7291 29.5142 21.8197 29.6537 21.9359 29.7694C22.0521 29.8852 22.1912 29.9745 22.344 30.0314L23.5804 30.46C23.6405 30.4806 23.6927 30.5197 23.7298 30.572C23.7669 30.6243 23.787 30.687 23.7872 30.7514L23.804 32.4057ZM16.4362 27.64C15.6698 27.6392 14.9205 27.8692 14.2829 28.301C13.6453 28.7328 13.1481 29.3469 12.8542 30.0657C12.5604 30.7845 12.4831 31.5757 12.6321 32.3392C12.7811 33.1027 13.1497 33.8041 13.6913 34.3547C14.2329 34.9054 14.9231 35.2805 15.6747 35.4327C16.4262 35.5848 17.2053 35.5071 17.9134 35.2095C18.6215 34.9118 19.2268 34.4076 19.6526 33.7605C20.0785 33.1134 20.3058 32.3526 20.3058 31.5743C20.3047 30.5319 19.8968 29.5325 19.1714 28.7951C18.4461 28.0576 17.4625 27.6423 16.4362 27.64ZM16.4362 34.6514C15.8368 34.6523 15.2506 34.4725 14.7517 34.1349C14.2529 33.7973 13.8639 33.317 13.634 32.7548C13.404 32.1926 13.3434 31.5738 13.4598 30.9766C13.5763 30.3794 13.8645 29.8307 14.288 29.3999C14.7116 28.9692 15.2515 28.6757 15.8393 28.5566C16.4272 28.4375 17.0366 28.4982 17.5905 28.731C18.1443 28.9637 18.6178 29.3581 18.9509 29.8643C19.284 30.3704 19.4618 30.9655 19.4618 31.5743C19.4607 32.3893 19.1417 33.1707 18.5747 33.7474C18.0076 34.3241 17.2387 34.6492 16.4362 34.6514ZM34.4212 20.6586L33.5266 19.8957C33.5007 19.8745 33.4798 19.8477 33.4652 19.8174C33.4506 19.787 33.4427 19.7538 33.4422 19.72C33.4414 19.6862 33.4478 19.6527 33.4609 19.6216C33.474 19.5906 33.4935 19.5627 33.5181 19.54L34.3916 18.7471C34.5593 18.5949 34.6757 18.393 34.7241 18.17C34.7726 17.9469 34.7508 17.714 34.6617 17.5043L34.0794 16.1329C33.9892 15.923 33.8364 15.7473 33.6425 15.6304C33.4487 15.5135 33.2236 15.4614 32.9991 15.4814L31.8344 15.5714C31.8017 15.5746 31.7686 15.5705 31.7376 15.5595C31.7065 15.5484 31.6782 15.5307 31.6546 15.5075C31.6309 15.4843 31.6125 15.4561 31.6005 15.425C31.5886 15.3939 31.5835 15.3605 31.5854 15.3271L31.6529 14.14C31.6658 13.9108 31.6071 13.6834 31.485 13.4902C31.363 13.297 31.184 13.148 30.9735 13.0643L29.6105 12.5157C29.4005 12.432 29.17 12.4172 28.9513 12.4733C28.7326 12.5294 28.5367 12.6536 28.391 12.8286L27.6399 13.7371C27.6185 13.7626 27.592 13.7831 27.5622 13.7971C27.5323 13.8112 27.4998 13.8185 27.4669 13.8186C27.4343 13.8188 27.4021 13.812 27.3723 13.7987C27.3425 13.7854 27.3157 13.7659 27.2938 13.7414L26.5132 12.8543C26.3639 12.6859 26.167 12.5684 25.9495 12.5177C25.732 12.4671 25.5045 12.4859 25.2979 12.5714L23.9517 13.1629C23.7379 13.2536 23.5585 13.4117 23.44 13.6139C23.3215 13.8161 23.2701 14.0516 23.2934 14.2857L23.3947 15.4729C23.3977 15.5057 23.3935 15.5389 23.3826 15.5699C23.3717 15.601 23.3542 15.6293 23.3314 15.6529C23.2833 15.6986 23.2201 15.7246 23.1542 15.7257L21.9853 15.6571C21.7599 15.6424 21.5358 15.7009 21.3454 15.8242C21.1549 15.9475 21.0081 16.1291 20.9261 16.3429L20.3817 17.7143C20.2993 17.9276 20.2847 18.1617 20.34 18.3838C20.3952 18.6059 20.5175 18.8049 20.6898 18.9529L21.5844 19.7157C21.6102 19.737 21.6312 19.7637 21.6458 19.7941C21.6603 19.8244 21.6682 19.8577 21.6688 19.8914C21.6699 19.9252 21.6636 19.9589 21.6505 19.99C21.6374 20.0211 21.6177 20.0489 21.5928 20.0714L20.7193 20.8643C20.5513 21.0172 20.4348 21.2198 20.3863 21.4436C20.3378 21.6674 20.3598 21.901 20.4493 22.1114L21.0316 23.4786C21.1198 23.6908 21.2717 23.8693 21.4657 23.9886C21.6597 24.1079 21.8859 24.1619 22.1119 24.1429L23.2766 24.04C23.3429 24.0373 23.4077 24.0603 23.458 24.1043C23.503 24.1529 23.5273 24.2176 23.5255 24.2843L23.458 25.4714C23.4451 25.7006 23.5039 25.928 23.6259 26.1212C23.7479 26.3144 23.927 26.4635 24.1374 26.5471L25.5004 27.0957C25.7102 27.1807 25.9411 27.1963 26.1601 27.1401C26.3791 27.0839 26.5751 26.9589 26.7199 26.7829L27.4711 25.8571C27.492 25.8309 27.5184 25.8096 27.5482 25.7948C27.5781 25.78 27.6108 25.772 27.6441 25.7714C27.6793 25.771 27.7142 25.7785 27.7463 25.7933C27.7784 25.8081 27.8069 25.8299 27.8298 25.8571L28.6104 26.74C28.7594 26.9116 28.958 27.031 29.1778 27.081C29.3976 27.1311 29.6274 27.1092 29.8342 27.0186L31.1845 26.4271C31.3911 26.3355 31.5642 26.1804 31.6793 25.9835C31.7944 25.7867 31.8457 25.5581 31.826 25.33L31.7205 24.1429C31.7166 24.1093 31.7202 24.0752 31.7312 24.0433C31.7422 24.0114 31.7601 23.9824 31.7838 23.9586C31.8065 23.9346 31.8342 23.9161 31.8649 23.9043C31.8955 23.8924 31.9283 23.8875 31.961 23.89L33.1257 23.9543C33.3488 23.969 33.5709 23.9124 33.7609 23.7925C33.9508 23.6727 34.099 23.4954 34.1848 23.2857L34.7292 21.9014C34.8126 21.6876 34.8277 21.4526 34.7724 21.2296C34.7172 21.0065 34.5943 20.8068 34.4212 20.6586ZM33.9443 21.5714L33.4 22.9643C33.3835 23.0101 33.3527 23.0491 33.3123 23.0754C33.2719 23.1017 33.2241 23.1139 33.1763 23.11L32.0074 23.0457C31.8538 23.0372 31.7001 23.0622 31.5568 23.1192C31.4136 23.1761 31.2839 23.2635 31.1768 23.3756C31.0696 23.4877 30.9873 23.6219 30.9355 23.769C30.8837 23.9162 30.8636 24.0729 30.8765 24.2286L30.9778 25.4286C30.9824 25.4778 30.9714 25.5273 30.9463 25.5697C30.9213 25.6121 30.8835 25.6453 30.8385 25.6643L29.4924 26.2557C29.4481 26.2751 29.399 26.2797 29.352 26.2689C29.3049 26.2582 29.2625 26.2325 29.2308 26.1957L28.4501 25.3086C28.3466 25.1927 28.2202 25.1003 28.0791 25.0376C27.938 24.9748 27.7855 24.943 27.6314 24.9443C27.4774 24.9469 27.3258 24.9831 27.1867 25.0504C27.0477 25.1177 26.9245 25.2145 26.8254 25.3343L26.0701 26.2429C26.0401 26.2808 25.9989 26.3079 25.9525 26.3203C25.9062 26.3326 25.8572 26.3295 25.8127 26.3114L24.4539 25.7457C24.4085 25.7278 24.3697 25.6958 24.3432 25.6542C24.3167 25.6127 24.3038 25.5637 24.3062 25.5143L24.3737 24.3314C24.3818 24.1829 24.3599 24.0344 24.3094 23.8948C24.2589 23.7552 24.1809 23.6275 24.0802 23.5196C23.9795 23.4117 23.8581 23.3257 23.7236 23.2671C23.589 23.2085 23.4441 23.1783 23.2977 23.1786H23.1879L22.0359 23.2857C21.9887 23.2892 21.9416 23.2779 21.9008 23.2534C21.8601 23.2289 21.8277 23.1923 21.808 23.1486L21.2257 21.7771C21.2061 21.7326 21.2009 21.683 21.2107 21.6353C21.2206 21.5875 21.245 21.5442 21.2806 21.5114L22.1541 20.7143C22.2688 20.6099 22.3601 20.4817 22.4218 20.3383C22.4835 20.195 22.5142 20.0399 22.5118 19.8834C22.5094 19.727 22.474 19.5729 22.4079 19.4316C22.3418 19.2903 22.2466 19.165 22.1288 19.0643L21.2341 18.3014C21.1965 18.2702 21.1696 18.2276 21.1574 18.1798C21.1453 18.132 21.1485 18.0815 21.1666 18.0357L21.711 16.6514C21.7275 16.6056 21.7582 16.5666 21.7986 16.5403C21.839 16.514 21.8868 16.5018 21.9346 16.5057L23.1035 16.57C23.2575 16.58 23.4118 16.5559 23.5558 16.4995C23.6997 16.4431 23.8299 16.3557 23.9374 16.2433C24.0449 16.1308 24.1271 15.9961 24.1784 15.8483C24.2297 15.7005 24.2488 15.5432 24.2345 15.3871L24.1332 14.2043C24.1292 14.1551 24.1405 14.106 24.1655 14.0637C24.1905 14.0214 24.2279 13.9881 24.2724 13.9686L25.6186 13.3771C25.6635 13.3574 25.7133 13.3526 25.7611 13.3634C25.8088 13.3742 25.852 13.4 25.8844 13.4371L26.6651 14.32C26.7676 14.436 26.8932 14.5285 27.0337 14.5913C27.1741 14.6541 27.3261 14.6858 27.4795 14.6843C27.6343 14.6815 27.7867 14.6443 27.9259 14.5755C28.0651 14.5066 28.1878 14.4077 28.2855 14.2857L29.0409 13.3814C29.0709 13.3435 29.1121 13.3164 29.1584 13.304C29.2048 13.2917 29.2538 13.2948 29.2983 13.3129L30.6613 13.8571C30.7067 13.8751 30.7454 13.9071 30.7719 13.9486C30.7984 13.9902 30.8114 14.0391 30.809 14.0886L30.7415 15.2757C30.7317 15.4339 30.7557 15.5924 30.8118 15.7403C30.8678 15.8883 30.9547 16.0221 31.0664 16.1329C31.177 16.2426 31.3097 16.3267 31.4554 16.3792C31.6012 16.4318 31.7564 16.4515 31.9104 16.4371L33.0793 16.3343C33.1272 16.3298 33.1752 16.3412 33.2163 16.3667C33.2573 16.3921 33.2892 16.4304 33.3071 16.4757L33.8895 17.8429C33.9097 17.8872 33.9153 17.9371 33.9054 17.985C33.8955 18.0328 33.8707 18.0762 33.8346 18.1086L32.9611 18.9014C32.8464 19.0058 32.7551 19.1341 32.6934 19.2774C32.6316 19.4207 32.6009 19.5759 32.6033 19.7323C32.6057 19.8887 32.6412 20.0428 32.7073 20.1841C32.7734 20.3254 32.8686 20.4507 32.9864 20.5514L33.881 21.3143C33.9153 21.3461 33.9395 21.3874 33.9508 21.4332C33.9621 21.4789 33.9598 21.527 33.9443 21.5714ZM26.3486 16.9343C25.7862 17.1741 25.3067 17.5784 24.971 18.0956C24.6353 18.6129 24.4586 19.2198 24.4634 19.8393C24.4681 20.4587 24.6541 21.0628 24.9977 21.5747C25.3413 22.0866 25.8269 22.4832 26.3929 22.7141C26.959 22.945 27.5798 22.9998 28.1765 22.8715C28.7733 22.7432 29.319 22.4377 29.7444 21.9937C30.1698 21.5497 30.4556 20.9872 30.5655 20.3779C30.6754 19.7685 30.6045 19.1397 30.3617 18.5714C30.037 17.8162 29.4322 17.2216 28.6784 16.9167C27.9247 16.6118 27.0829 16.6212 26.3359 16.9429L26.3486 16.9343ZM28.4585 21.88C28.0536 22.0558 27.6065 22.1061 27.1735 22.0244C26.7405 21.9428 26.3409 21.7329 26.0251 21.4212C25.7093 21.1094 25.4913 20.7098 25.3986 20.2725C25.306 19.8352 25.3427 19.3799 25.5043 18.9638C25.6658 18.5477 25.9449 18.1894 26.3065 17.9341C26.6681 17.6787 27.0959 17.5377 27.5362 17.5287C27.9766 17.5197 28.4096 17.6433 28.781 17.8837C29.1524 18.1242 29.4454 18.4708 29.6232 18.88C29.7439 19.1558 29.809 19.4534 29.8147 19.7551C29.8204 20.0569 29.7667 20.3568 29.6566 20.6371C29.5465 20.9175 29.3823 21.1726 29.1736 21.3875C28.965 21.6024 28.7161 21.7728 28.4416 21.8886L28.4585 21.88ZM29.5177 33.7386C29.5758 33.7987 29.6151 33.8749 29.6307 33.9577C29.6464 34.0404 29.6377 34.126 29.6057 34.2037C29.5738 34.2815 29.5199 34.3479 29.451 34.3948C29.3821 34.4416 29.301 34.4668 29.2181 34.4671C29.1626 34.4675 29.1075 34.4567 29.0561 34.4353C29.0047 34.414 28.9579 34.3826 28.9185 34.3429L26.8676 32.26C26.8281 32.2202 26.7967 32.1728 26.7753 32.1205C26.7538 32.0683 26.7428 32.0123 26.7428 31.9557C26.7428 31.8991 26.7538 31.8431 26.7753 31.7909C26.7967 31.7387 26.8281 31.6913 26.8676 31.6514C26.9467 31.5716 27.0537 31.5268 27.1651 31.5268C27.2766 31.5268 27.3836 31.5716 27.4626 31.6514L29.5177 33.7386ZM31.7964 30.6271C31.7964 30.7408 31.752 30.8498 31.6728 30.9302C31.5937 31.0106 31.4864 31.0557 31.3744 31.0557H28.4881C28.3761 31.0557 28.2688 31.0106 28.1897 30.9302C28.1105 30.8498 28.0661 30.7408 28.0661 30.6271C28.0661 30.5135 28.1105 30.4045 28.1897 30.3241C28.2688 30.2437 28.3761 30.1986 28.4881 30.1986H31.3913C31.5032 30.1986 31.6106 30.2437 31.6897 30.3241C31.7688 30.4045 31.8133 30.5135 31.8133 30.6271H31.7964ZM26.2811 33.2843V36.2329C26.2811 36.3465 26.2366 36.4555 26.1575 36.5359C26.0784 36.6163 25.971 36.6614 25.8591 36.6614C25.7472 36.6614 25.6398 36.6163 25.5607 36.5359C25.4816 36.4555 25.4371 36.3465 25.4371 36.2329V33.2843C25.4371 33.1706 25.4816 33.0616 25.5607 32.9812C25.6398 32.9009 25.7472 32.8557 25.8591 32.8557C25.971 32.8557 26.0784 32.9009 26.1575 32.9812C26.2366 33.0616 26.2811 33.1706 26.2811 33.2843ZM14.0435 18.0314L16.0944 20.1143C16.1454 20.1954 16.168 20.2917 16.1586 20.3875C16.1492 20.4833 16.1083 20.5731 16.0425 20.6424C15.9767 20.7117 15.8898 20.7565 15.7959 20.7695C15.7019 20.7826 15.6064 20.7631 15.5247 20.7143L13.4823 18.6357C13.4132 18.5537 13.377 18.4483 13.3811 18.3404C13.3852 18.2325 13.4293 18.1302 13.5044 18.0539C13.5796 17.9776 13.6803 17.9329 13.7865 17.9287C13.8927 17.9245 13.9966 17.9612 14.0773 18.0314H14.0435ZM11.1656 21.7471C11.1656 21.6335 11.2101 21.5245 11.2892 21.4441C11.3683 21.3637 11.4757 21.3186 11.5876 21.3186H14.4908C14.6028 21.3186 14.7101 21.3637 14.7892 21.4441C14.8684 21.5245 14.9128 21.6335 14.9128 21.7471C14.9128 21.8608 14.8684 21.9698 14.7892 22.0502C14.7101 22.1306 14.6028 22.1757 14.4908 22.1757H11.6129C11.501 22.1757 11.3937 22.1306 11.3145 22.0502C11.2354 21.9698 11.1909 21.8608 11.1909 21.7471H11.1656ZM16.6809 19.09V16.1414C16.6809 16.0278 16.7254 15.9188 16.8045 15.8384C16.8837 15.758 16.991 15.7129 17.1029 15.7129C17.2148 15.7129 17.3222 15.758 17.4013 15.8384C17.4804 15.9188 17.5249 16.0278 17.5249 16.1414V19.09C17.5249 19.2037 17.4804 19.3127 17.4013 19.393C17.3222 19.4734 17.2148 19.5186 17.1029 19.5186C16.991 19.5186 16.8837 19.4734 16.8045 19.393C16.7254 19.3127 16.6809 19.2037 16.6809 19.09Z" fill="#4E585F" stroke="#4E585F" stroke-width="0.5"/>
</svg>
